<svg width="250" height="91" viewBox="0 0 250 91" fill="none" xmlns="http://www.w3.org/2000/svg">
<path d="M46.0457 24.55V9.07C46.0457 4.555 45.9597 3.867 43.2507 3.652L42.1757 3.566C41.9177 3.394 42.0037 2.62 42.2617 2.491C44.6697 2.577 46.1317 2.62 47.8517 2.62C49.5287 2.62 50.9907 2.577 53.1407 2.491C53.3987 2.62 53.4847 3.394 53.2267 3.566L52.1947 3.652C49.6577 3.867 49.5717 4.555 49.5717 9.07V24.034C49.5717 26.743 49.7007 27.861 50.4747 28.678C50.9477 29.151 51.7647 29.667 55.1617 29.667C58.8167 29.667 59.7197 29.495 60.4077 29.108C61.2677 28.592 62.3857 27.044 63.2457 24.851C63.5037 24.636 64.3207 24.808 64.3207 25.109C64.3207 25.582 63.1167 29.968 62.5147 31.129C60.3217 31.043 56.2367 31 51.8077 31H47.8517C46.0457 31 44.6697 31.043 42.2617 31.129C42.0037 31 41.9177 30.312 42.1757 30.054L43.4657 29.925C45.9597 29.667 46.0457 29.065 46.0457 24.55ZM66.5883 26.184V18.659C66.5883 16.982 66.5883 16.767 65.4273 15.993L65.0403 15.735C64.8683 15.563 64.8683 15.09 65.0833 14.961C66.0723 14.617 68.5233 13.499 69.5123 12.854C69.7273 12.854 69.8993 12.94 69.9423 13.112C69.8563 14.617 69.7703 16.681 69.7703 18.444V26.184C69.7703 29.28 69.8563 29.71 71.4043 29.925L72.3073 30.054C72.6083 30.269 72.5223 31 72.2213 31.129C70.9313 31.043 69.6843 31 68.1793 31C66.6313 31 65.3413 31.043 64.1373 31.129C63.8363 31 63.7503 30.269 64.0513 30.054L64.9543 29.925C66.5453 29.71 66.5883 29.28 66.5883 26.184ZM68.0073 4.168C69.2973 4.168 70.1573 5.2 70.1573 6.404C70.1573 7.952 69.0823 8.64 67.8783 8.64C66.5453 8.64 65.6853 7.651 65.6853 6.49C65.6853 5.071 66.7173 4.168 68.0073 4.168ZM85.0282 19.992H77.0732C75.9552 19.992 75.9122 20.078 75.9122 21.153C75.9122 25.496 78.4492 29.194 83.0502 29.194C84.4692 29.194 85.6732 28.764 87.0062 27.087C87.4362 26.958 87.7372 27.216 87.7802 27.603C86.3612 30.527 83.2652 31.602 81.0292 31.602C78.2342 31.602 76.0412 30.398 74.7942 28.764C73.5042 27.087 72.9882 25.066 72.9882 23.174C72.9882 17.885 76.4712 13.456 81.6312 13.456C85.3292 13.456 87.7372 15.993 87.7372 18.573C87.7372 19.175 87.6512 19.519 87.5652 19.691C87.4362 19.949 86.8342 19.992 85.0282 19.992ZM76.6862 18.702H79.7392C82.9212 18.702 83.8672 18.53 84.2112 18.272C84.3402 18.186 84.4692 18.014 84.4692 17.455C84.4692 16.251 83.6522 14.746 81.1582 14.746C78.6212 14.746 76.4282 17.068 76.3852 18.487C76.3852 18.573 76.3852 18.702 76.6862 18.702ZM88.3171 21.325L98.3361 20.379C98.8091 20.68 98.9811 21.196 98.9811 21.755C98.9811 22.185 98.8521 22.572 98.6371 22.83L88.6181 23.776C88.1451 23.389 87.9731 22.83 87.9731 22.4C87.9731 21.97 88.1021 21.583 88.3171 21.325ZM127.073 13.413V23.69C127.073 24.98 127.073 30.097 127.202 31.215C127.116 31.473 126.858 31.688 126.385 31.688C125.869 30.957 124.622 29.452 120.881 25.195L110.905 13.843C109.744 12.51 106.82 8.984 105.917 8.038H105.831C105.659 8.554 105.616 9.543 105.616 10.833V20.207C105.616 22.228 105.659 27.818 106.39 29.108C106.648 29.581 107.508 29.839 108.583 29.925L109.916 30.054C110.174 30.398 110.131 30.914 109.83 31.129C107.895 31.043 106.39 31 104.799 31C102.993 31 101.832 31.043 100.327 31.129C100.026 30.914 99.9835 30.312 100.241 30.054L101.402 29.925C102.391 29.796 103.079 29.538 103.294 29.065C103.896 27.517 103.853 22.271 103.853 20.207V7.78C103.853 6.576 103.81 5.673 102.907 4.684C102.305 4.082 101.273 3.781 100.241 3.652L99.5105 3.566C99.2525 3.308 99.2525 2.663 99.5965 2.491C101.402 2.62 103.681 2.62 104.455 2.62C105.143 2.62 105.874 2.577 106.433 2.491C107.293 4.684 112.367 10.36 113.786 11.951L117.957 16.638C120.924 19.949 123.031 22.357 125.052 24.421H125.138C125.31 24.206 125.31 23.518 125.31 22.615V13.413C125.31 11.392 125.267 5.802 124.45 4.512C124.192 4.125 123.504 3.867 121.784 3.652L121.053 3.566C120.752 3.308 120.795 2.62 121.139 2.491C123.117 2.577 124.579 2.62 126.213 2.62C128.062 2.62 129.18 2.577 130.642 2.491C130.986 2.706 130.986 3.308 130.728 3.566L130.126 3.652C128.75 3.867 127.89 4.211 127.718 4.555C126.987 6.103 127.073 11.435 127.073 13.413ZM142.421 19.992H134.466C133.348 19.992 133.305 20.078 133.305 21.153C133.305 25.496 135.842 29.194 140.443 29.194C141.862 29.194 143.066 28.764 144.399 27.087C144.829 26.958 145.13 27.216 145.173 27.603C143.754 30.527 140.658 31.602 138.422 31.602C135.627 31.602 133.434 30.398 132.187 28.764C130.897 27.087 130.381 25.066 130.381 23.174C130.381 17.885 133.864 13.456 139.024 13.456C142.722 13.456 145.13 15.993 145.13 18.573C145.13 19.175 145.044 19.519 144.958 19.691C144.829 19.949 144.227 19.992 142.421 19.992ZM134.079 18.702H137.132C140.314 18.702 141.26 18.53 141.604 18.272C141.733 18.186 141.862 18.014 141.862 17.455C141.862 16.251 141.045 14.746 138.551 14.746C136.014 14.746 133.821 17.068 133.778 18.487C133.778 18.573 133.778 18.702 134.079 18.702ZM148.204 26.184V18.659C148.204 16.982 148.204 16.767 147.043 15.993L146.656 15.735C146.484 15.563 146.484 15.09 146.699 14.961C147.688 14.617 150.139 13.499 151.128 12.854C151.343 12.854 151.515 12.94 151.558 13.112C151.472 14.617 151.386 16.681 151.386 18.444V26.184C151.386 29.28 151.472 29.71 153.02 29.925L153.923 30.054C154.224 30.269 154.138 31 153.837 31.129C152.547 31.043 151.3 31 149.795 31C148.247 31 146.957 31.043 145.753 31.129C145.452 31 145.366 30.269 145.667 30.054L146.57 29.925C148.161 29.71 148.204 29.28 148.204 26.184ZM149.623 4.168C150.913 4.168 151.773 5.2 151.773 6.404C151.773 7.952 150.698 8.64 149.494 8.64C148.161 8.64 147.301 7.651 147.301 6.49C147.301 5.071 148.333 4.168 149.623 4.168ZM160.065 5.845V26.184C160.065 29.28 160.151 29.71 161.699 29.925L162.731 30.054C163.032 30.269 162.946 31 162.645 31.129C161.226 31.043 159.979 31 158.474 31C156.926 31 155.636 31.043 154.346 31.129C154.045 31 153.959 30.269 154.26 30.054L155.249 29.925C156.84 29.71 156.883 29.28 156.883 26.184V6.748C156.883 4.211 156.84 3.953 155.55 3.179L155.12 2.921C154.905 2.792 154.905 2.19 155.12 2.061C156.195 1.717 158.216 1.072 159.764 0.254999C159.936 0.254999 160.108 0.340997 160.194 0.512998C160.151 1.803 160.065 3.953 160.065 5.845ZM169.786 13.456C171.592 13.456 173.183 13.886 173.57 14.23C173.957 15.176 174.258 16.552 174.258 17.713C174.086 18.014 173.441 18.1 173.226 17.842C172.495 15.95 171.205 14.703 169.442 14.703C167.765 14.703 166.69 15.778 166.69 17.326C166.69 19.089 168.496 20.035 170.001 20.895C172.28 22.185 174.387 23.647 174.387 26.7C174.387 29.968 171.377 31.602 168.195 31.602C166.174 31.602 164.669 31.172 163.594 30.312C163.25 29.495 162.992 27.388 163.078 25.969C163.293 25.711 163.852 25.668 164.067 25.926C164.798 28.291 166.174 30.355 168.625 30.355C170.173 30.355 171.506 29.452 171.506 27.603C171.506 25.625 169.786 24.55 168.195 23.647C165.701 22.228 163.938 20.723 163.938 18.358C163.938 15.219 166.518 13.456 169.786 13.456ZM187.298 19.992H179.343C178.225 19.992 178.182 20.078 178.182 21.153C178.182 25.496 180.719 29.194 185.32 29.194C186.739 29.194 187.943 28.764 189.276 27.087C189.706 26.958 190.007 27.216 190.05 27.603C188.631 30.527 185.535 31.602 183.299 31.602C180.504 31.602 178.311 30.398 177.064 28.764C175.774 27.087 175.258 25.066 175.258 23.174C175.258 17.885 178.741 13.456 183.901 13.456C187.599 13.456 190.007 15.993 190.007 18.573C190.007 19.175 189.921 19.519 189.835 19.691C189.706 19.949 189.104 19.992 187.298 19.992ZM178.956 18.702H182.009C185.191 18.702 186.137 18.53 186.481 18.272C186.61 18.186 186.739 18.014 186.739 17.455C186.739 16.251 185.922 14.746 183.428 14.746C180.891 14.746 178.698 17.068 178.655 18.487C178.655 18.573 178.655 18.702 178.956 18.702ZM193.081 26.184V18.659C193.081 16.982 193.081 16.767 191.92 15.993L191.533 15.735C191.361 15.563 191.361 15.09 191.576 14.961C192.565 14.617 195.016 13.499 195.876 12.854C196.048 12.854 196.263 12.94 196.349 13.155C196.263 14.144 196.263 14.789 196.263 15.176C196.263 15.434 196.435 15.649 196.736 15.649C198.542 14.531 200.563 13.456 202.756 13.456C206.325 13.456 207.787 15.907 207.787 18.788V26.184C207.787 29.28 207.873 29.71 209.421 29.925L210.367 30.054C210.668 30.269 210.582 31 210.281 31.129C208.991 31.043 207.744 31 206.239 31C204.691 31 203.401 31.043 202.24 31.129C201.939 31 201.853 30.269 202.154 30.054L202.971 29.925C204.562 29.667 204.605 29.28 204.605 26.184V19.777C204.605 17.326 203.487 15.52 200.563 15.52C198.929 15.52 197.51 16.208 196.908 17.025C196.349 17.756 196.263 18.358 196.263 19.605V26.184C196.263 29.28 196.349 29.667 197.897 29.925L198.671 30.054C198.972 30.269 198.886 31 198.585 31.129C197.424 31.043 196.177 31 194.672 31C193.124 31 191.834 31.043 190.63 31.129C190.329 31 190.243 30.269 190.544 30.054L191.447 29.925C193.038 29.71 193.081 29.28 193.081 26.184ZM16.1338 40.415V59.55C16.1338 64.065 16.2198 64.71 18.7138 64.925L20.0898 65.054C20.3478 65.226 20.2618 66 20.0038 66.129C17.5528 66.043 16.0908 66 14.3708 66C12.6508 66 11.1458 66.043 8.39382 66.129C8.13582 66 8.04982 65.269 8.39382 65.054L9.94182 64.925C12.3928 64.71 12.6078 64.065 12.6078 59.55V40.329C12.6078 38.996 12.6078 38.953 11.3178 38.953H8.95282C7.10382 38.953 4.73882 39.039 3.66382 40.028C2.63182 40.974 2.20182 41.92 1.72882 42.995C1.38482 43.253 0.782822 43.038 0.610822 42.694C1.29882 40.759 1.94382 38.007 2.24482 36.287C2.37382 36.201 2.93282 36.158 3.06182 36.287C3.31982 37.663 4.73882 37.62 6.71682 37.62H24.1318C26.4538 37.62 26.8408 37.534 27.4858 36.416C27.7008 36.33 28.1738 36.373 28.2598 36.545C27.7868 38.308 27.4858 41.791 27.6148 43.081C27.4428 43.425 26.7118 43.425 26.4968 43.167C26.3678 42.092 26.0668 40.501 25.4218 40.028C24.4328 39.297 22.7988 38.953 20.4338 38.953H17.3808C16.0908 38.953 16.1338 38.996 16.1338 40.415ZM42.6618 66.688C33.1158 66.688 27.3538 59.851 27.3538 52.111C27.3538 43.511 33.8038 36.932 42.6618 36.932C52.5948 36.932 57.5828 44.113 57.5828 51.681C57.5828 60.367 50.9608 66.688 42.6618 66.688ZM43.2208 65.355C48.3808 65.355 53.2828 61.485 53.2828 53.014C53.2828 45.919 50.1438 38.265 41.9308 38.265C37.4588 38.265 31.6538 41.318 31.6538 50.735C31.6538 57.099 34.7498 65.355 43.2208 65.355ZM74.9084 66.688C65.3624 66.688 59.6004 59.851 59.6004 52.111C59.6004 43.511 66.0504 36.932 74.9084 36.932C84.8414 36.932 89.8294 44.113 89.8294 51.681C89.8294 60.367 83.2074 66.688 74.9084 66.688ZM75.4674 65.355C80.6274 65.355 85.5294 61.485 85.5294 53.014C85.5294 45.919 82.3904 38.265 74.1774 38.265C69.7054 38.265 63.9004 41.318 63.9004 50.735C63.9004 57.099 66.9964 65.355 75.4674 65.355ZM95.3731 59.55V44.07C95.3731 39.555 95.2871 38.867 92.5781 38.652L91.5031 38.566C91.2451 38.394 91.3311 37.62 91.5891 37.491C93.9971 37.577 95.4591 37.62 97.1791 37.62C98.8561 37.62 100.318 37.577 102.468 37.491C102.726 37.62 102.812 38.394 102.554 38.566L101.522 38.652C98.9851 38.867 98.8991 39.555 98.8991 44.07V59.034C98.8991 61.743 99.0281 62.861 99.8021 63.678C100.275 64.151 101.092 64.667 104.489 64.667C108.144 64.667 109.047 64.495 109.735 64.108C110.595 63.592 111.713 62.044 112.573 59.851C112.831 59.636 113.648 59.808 113.648 60.109C113.648 60.582 112.444 64.968 111.842 66.129C109.649 66.043 105.564 66 101.135 66H97.1791C95.3731 66 93.9971 66.043 91.5891 66.129C91.3311 66 91.2451 65.312 91.5031 65.054L92.7931 64.925C95.2871 64.667 95.3731 64.065 95.3731 59.55ZM107.86 38.609L106.828 38.523C106.57 38.265 106.613 37.663 106.957 37.491C108.118 37.577 110.053 37.62 111.386 37.62C112.59 37.62 114.783 37.577 116.288 37.491C116.675 37.62 116.632 38.222 116.374 38.523L115.385 38.609C114.482 38.695 113.966 38.953 113.966 39.34C113.966 39.856 114.869 42.049 116.202 45.102C118.61 50.477 121.147 55.852 123.641 61.141C124.673 58.991 125.834 56.583 126.952 54.175C127.339 53.358 127.64 52.627 127.64 52.412C127.64 52.197 127.511 51.81 127.296 51.294C125.791 47.854 124.2 44.414 122.566 40.974C121.921 39.641 121.276 38.738 119.814 38.609L118.782 38.523C118.481 38.179 118.524 37.663 118.868 37.491C120.115 37.577 121.749 37.62 123.469 37.62C125.619 37.62 127.21 37.577 128.199 37.491C128.5 37.62 128.543 38.179 128.285 38.523L127.167 38.609C125.49 38.738 125.447 39.039 126.264 40.974C127.167 43.081 128.371 45.79 129.575 48.456C130.392 46.779 131.166 45.145 132.112 42.823C133.66 39.168 133.445 38.695 132.069 38.609L130.779 38.523C130.478 38.093 130.564 37.62 130.865 37.491C132.026 37.577 133.316 37.62 134.907 37.62C136.326 37.62 138.046 37.577 139.035 37.491C139.336 37.62 139.379 38.179 139.121 38.523L137.874 38.609C136.068 38.738 135.294 40.673 134.348 42.436C133.445 44.027 131.639 47.768 130.994 49.273C130.779 49.703 130.607 50.133 130.607 50.305C130.607 50.477 130.693 50.821 130.908 51.337C132.37 54.648 133.875 57.873 135.294 61.141C136.627 58.131 137.917 55.121 139.164 52.068C140.024 50.004 142.303 44.285 142.604 43.511C143.163 41.963 143.894 40.114 143.894 39.598C143.894 38.996 143.378 38.652 142.475 38.609L141.228 38.523C140.884 38.136 140.927 37.663 141.271 37.491C142.905 37.577 144.066 37.62 145.399 37.62C147.033 37.62 148.28 37.577 149.398 37.491C149.742 37.62 149.785 38.179 149.484 38.523L148.667 38.609C146.517 38.824 146.13 40.114 143.55 46.091L140.411 53.358C138.519 57.744 136.799 61.958 135.036 66.559C134.907 66.645 134.735 66.688 134.52 66.688C134.305 66.688 134.09 66.645 133.918 66.559C132.542 62.732 130.048 57.357 128.715 54.347C127.167 57.486 124.587 62.99 123.34 66.559C123.211 66.645 123.039 66.688 122.824 66.688C122.609 66.688 122.394 66.645 122.179 66.559C121.448 64.753 119.771 60.883 119.212 59.636C116.46 53.659 113.794 47.682 110.999 41.705C110.182 39.942 109.666 38.781 107.86 38.609ZM162.83 66.688C153.284 66.688 147.522 59.851 147.522 52.111C147.522 43.511 153.972 36.932 162.83 36.932C172.763 36.932 177.751 44.113 177.751 51.681C177.751 60.367 171.129 66.688 162.83 66.688ZM163.389 65.355C168.549 65.355 173.451 61.485 173.451 53.014C173.451 45.919 170.312 38.265 162.099 38.265C157.627 38.265 151.822 41.318 151.822 50.735C151.822 57.099 154.918 65.355 163.389 65.355ZM183.295 59.55V44.113C183.295 40.028 183.166 39.297 181.403 39.082L180.027 38.91C179.726 38.695 179.726 38.007 180.07 37.835C182.478 37.62 185.445 37.491 189.659 37.491C192.325 37.491 194.862 37.706 196.84 38.781C198.904 39.856 200.409 41.791 200.409 44.801C200.409 48.886 197.184 51.122 195.034 51.982C194.819 52.24 195.034 52.67 195.249 53.014C198.689 58.561 200.968 62.001 203.892 64.452C204.623 65.097 205.698 65.57 206.859 65.656C207.074 65.742 207.117 66.086 206.902 66.258C206.515 66.387 205.827 66.473 205.01 66.473C201.355 66.473 199.162 65.398 196.109 61.055C194.991 59.464 193.228 56.497 191.895 54.562C191.25 53.616 190.562 53.186 188.842 53.186C186.907 53.186 186.821 53.229 186.821 54.132V59.55C186.821 64.065 186.907 64.581 189.401 64.925L190.304 65.054C190.562 65.269 190.476 66 190.218 66.129C188.283 66.043 186.821 66 185.101 66C183.295 66 181.747 66.043 179.726 66.129C179.468 66 179.382 65.355 179.64 65.054L180.715 64.925C183.209 64.624 183.295 64.065 183.295 59.55ZM186.821 40.2V50.262C186.821 51.036 186.821 51.509 186.95 51.681C187.079 51.81 187.724 51.896 189.917 51.896C191.465 51.896 193.099 51.724 194.346 50.778C195.507 49.875 196.496 48.37 196.496 45.446C196.496 42.049 194.389 38.824 189.616 38.824C186.95 38.824 186.821 38.996 186.821 40.2ZM209.074 59.55V44.07C209.074 39.555 208.988 38.867 206.494 38.652L205.419 38.566C205.161 38.394 205.247 37.62 205.505 37.491C207.612 37.577 208.988 37.62 210.923 37.62C212.6 37.62 214.062 37.577 215.911 37.491C216.169 37.62 216.255 38.394 215.997 38.566L215.18 38.652C212.686 38.91 212.6 39.555 212.6 44.07V49.015C212.6 49.832 212.686 50.649 213.159 50.649C213.546 50.649 214.062 50.391 214.363 50.176C214.965 49.66 216.083 48.542 216.556 48.112L221.2 43.511C222.017 42.737 224.124 40.544 224.554 39.942C224.769 39.641 224.855 39.426 224.855 39.254C224.855 39.082 224.683 38.953 224.124 38.824L222.963 38.566C222.662 38.265 222.705 37.706 223.049 37.491C224.554 37.577 226.274 37.62 227.779 37.62C229.284 37.62 230.746 37.577 232.036 37.491C232.337 37.706 232.38 38.308 232.122 38.566C231.004 38.652 229.327 39.082 228.123 39.77C226.919 40.458 224.511 42.479 222.103 44.758L218.233 48.413C217.631 49.015 217.244 49.402 217.244 49.746C217.244 50.047 217.502 50.391 218.061 51.079C222.146 55.766 225.457 59.636 228.811 63.162C229.843 64.194 230.789 64.753 232.251 64.925L233.412 65.054C233.713 65.269 233.627 66 233.326 66.129C232.208 66.043 230.531 66 228.51 66C226.747 66 225.242 66.043 223.264 66.129C222.963 66.043 222.834 65.312 223.092 65.054L224.081 64.882C224.683 64.796 225.113 64.667 225.113 64.452C225.113 64.194 224.812 63.85 224.511 63.463C223.694 62.431 222.576 61.27 220.942 59.421L217.502 55.551C215.051 52.799 214.363 51.939 213.331 51.939C212.686 51.939 212.6 52.498 212.6 54.003V59.55C212.6 64.065 212.686 64.667 215.094 64.925L216.255 65.054C216.513 65.226 216.427 66 216.169 66.129C214.062 66.043 212.6 66 210.923 66C209.16 66 207.698 66.043 205.935 66.129C205.677 66 205.591 65.355 205.849 65.054L206.709 64.925C208.988 64.581 209.074 64.065 209.074 59.55ZM249.443 58.733C249.443 63.463 245.874 66.688 240.284 66.688C236.672 66.688 234.393 65.57 233.576 65.097C233.06 64.151 232.501 61.098 232.415 59.077C232.63 58.776 233.275 58.69 233.447 58.948C234.092 61.141 235.855 65.355 240.843 65.355C244.455 65.355 246.218 62.99 246.218 60.41C246.218 58.518 245.831 56.411 242.692 54.39L238.607 51.724C236.457 50.305 233.963 47.854 233.963 44.328C233.963 40.243 237.145 36.932 242.735 36.932C244.068 36.932 245.616 37.19 246.734 37.491C247.293 37.663 247.895 37.749 248.239 37.749C248.626 38.781 249.013 41.189 249.013 42.995C248.841 43.253 248.153 43.382 247.938 43.124C247.379 41.06 246.218 38.265 242.09 38.265C237.876 38.265 236.973 41.06 236.973 43.038C236.973 45.532 239.037 47.338 240.628 48.327L244.068 50.477C246.777 52.154 249.443 54.648 249.443 58.733ZM100.854 85.44V74.76C100.854 71.58 100.794 71.07 99.0243 70.92L98.2743 70.86C98.0943 70.74 98.1543 70.2 98.3343 70.11C99.8343 70.17 100.854 70.2 102.114 70.2C103.314 70.2 104.334 70.17 105.834 70.11C106.014 70.2 106.074 70.74 105.894 70.86L105.144 70.92C103.374 71.07 103.314 71.58 103.314 74.76V85.44C103.314 88.62 103.374 89.04 105.144 89.25L105.894 89.34C106.074 89.46 106.014 90 105.834 90.09C104.334 90.03 103.314 90 102.114 90C100.854 90 99.8343 90.03 98.3343 90.09C98.1543 90 98.0943 89.52 98.2743 89.34L99.0243 89.25C100.794 89.04 100.854 88.62 100.854 85.44ZM125.781 77.73V84.9C125.781 85.8 125.781 89.37 125.871 90.15C125.811 90.33 125.631 90.48 125.301 90.48C124.941 89.97 124.071 88.92 121.461 85.95L114.501 78.03C113.691 77.1 111.651 74.64 111.021 73.98H110.961C110.841 74.34 110.811 75.03 110.811 75.93V82.47C110.811 83.88 110.841 87.78 111.351 88.68C111.531 89.01 112.131 89.19 112.881 89.25L113.811 89.34C113.991 89.58 113.961 89.94 113.751 90.09C112.401 90.03 111.351 90 110.241 90C108.981 90 108.171 90.03 107.121 90.09C106.911 89.94 106.881 89.52 107.061 89.34L107.871 89.25C108.561 89.16 109.041 88.98 109.191 88.65C109.611 87.57 109.581 83.91 109.581 82.47V73.8C109.581 72.96 109.551 72.33 108.921 71.64C108.501 71.22 107.781 71.01 107.061 70.92L106.551 70.86C106.371 70.68 106.371 70.23 106.611 70.11C107.871 70.2 109.461 70.2 110.001 70.2C110.481 70.2 110.991 70.17 111.381 70.11C111.981 71.64 115.521 75.6 116.511 76.71L119.421 79.98C121.491 82.29 122.961 83.97 124.371 85.41H124.431C124.551 85.26 124.551 84.78 124.551 84.15V77.73C124.551 76.32 124.521 72.42 123.951 71.52C123.771 71.25 123.291 71.07 122.091 70.92L121.581 70.86C121.371 70.68 121.401 70.2 121.641 70.11C123.021 70.17 124.041 70.2 125.181 70.2C126.471 70.2 127.251 70.17 128.271 70.11C128.511 70.26 128.511 70.68 128.331 70.86L127.911 70.92C126.951 71.07 126.351 71.31 126.231 71.55C125.721 72.63 125.781 76.35 125.781 77.73ZM129.267 80.22C129.267 76.89 130.767 74.04 133.047 72.27C135.237 70.56 138.027 69.72 141.147 69.72C142.767 69.72 145.047 70.05 146.457 70.44C146.817 70.53 147.027 70.59 147.297 70.56C147.327 71.25 147.477 73.14 147.717 74.97C147.567 75.18 147.117 75.21 146.907 75.03C146.457 72.99 145.107 70.65 140.757 70.65C136.167 70.65 132.267 73.56 132.267 79.77C132.267 86.07 136.257 89.55 141.177 89.55C145.047 89.55 146.757 87.03 147.447 85.26C147.657 85.11 148.107 85.17 148.227 85.38C148.017 86.94 147.237 88.92 146.787 89.49C146.427 89.55 146.067 89.67 145.737 89.79C145.077 90.03 142.917 90.48 140.997 90.48C138.297 90.48 135.717 89.94 133.527 88.47C131.127 86.82 129.267 84.09 129.267 80.22ZM151.236 90.42C150.366 90.42 149.556 89.79 149.556 88.77C149.556 87.75 150.276 87 151.236 87C152.256 87 152.916 87.81 152.916 88.77C152.916 89.73 152.256 90.42 151.236 90.42Z" fill="white"/>
</svg>
