<svg width="135" height="54" viewBox="0 0 135 54" fill="none" xmlns="http://www.w3.org/2000/svg">
<path d="M25.2543 12.995C25.2543 15.41 25.2083 15.732 23.8743 15.87L23.1843 15.939C23.0463 16.077 23.0923 16.445 23.2303 16.514C24.5183 16.468 25.2543 16.445 26.2203 16.445H28.3363C30.7053 16.445 32.8903 16.468 34.0633 16.514C34.3853 15.893 35.0293 13.547 35.0293 13.294C35.0293 13.133 34.5923 13.041 34.4543 13.156C33.9943 14.329 33.3963 15.157 32.9363 15.433C32.5683 15.64 32.0853 15.732 30.1303 15.732C28.3133 15.732 27.8763 15.456 27.6233 15.203C27.2093 14.766 27.1403 14.168 27.1403 12.719V4.715C27.1403 2.3 27.1863 1.932 28.5433 1.817L29.0953 1.771C29.2333 1.679 29.1873 1.265 29.0493 1.196C27.8993 1.242 27.1173 1.265 26.2203 1.265C25.3003 1.265 24.5183 1.242 23.2303 1.196C23.0923 1.265 23.0463 1.679 23.1843 1.771L23.7593 1.817C25.2083 1.932 25.2543 2.3 25.2543 4.715V12.995Z" fill="black"/>
<path d="M36.2422 13.869C36.2422 15.525 36.2192 15.755 35.3682 15.87L34.8852 15.939C34.7242 16.054 34.7702 16.445 34.9312 16.514C35.5752 16.468 36.2652 16.445 37.0932 16.445C37.8982 16.445 38.5652 16.468 39.2552 16.514C39.4162 16.445 39.4622 16.054 39.3012 15.939L38.8182 15.87C37.9902 15.755 37.9442 15.525 37.9442 13.869V9.729C37.9442 8.786 37.9902 7.682 38.0362 6.877C38.0132 6.785 37.9212 6.739 37.8062 6.739C37.2772 7.084 35.9662 7.682 35.4372 7.866C35.3222 7.935 35.3222 8.188 35.4142 8.28L35.6212 8.418C36.2422 8.832 36.2422 8.947 36.2422 9.844V13.869ZM37.0012 2.093C36.3112 2.093 35.7592 2.576 35.7592 3.335C35.7592 3.956 36.2192 4.485 36.9322 4.485C37.5762 4.485 38.1512 4.117 38.1512 3.289C38.1512 2.645 37.6912 2.093 37.0012 2.093Z" fill="black"/>
<path d="M46.1054 10.557C47.0714 10.557 47.3934 10.534 47.4624 10.396C47.5084 10.304 47.5544 10.12 47.5544 9.798C47.5544 8.418 46.2664 7.061 44.2884 7.061C41.5284 7.061 39.6654 9.43 39.6654 12.259C39.6654 13.271 39.9414 14.352 40.6314 15.249C41.2984 16.123 42.4714 16.767 43.9664 16.767C45.1624 16.767 46.8184 16.192 47.5774 14.628C47.5544 14.421 47.3934 14.283 47.1634 14.352C46.4504 15.249 45.8064 15.479 45.0474 15.479C42.5864 15.479 41.2294 13.501 41.2294 11.178C41.2294 10.603 41.2524 10.557 41.8504 10.557H46.1054ZM41.6434 9.867C41.4824 9.867 41.4824 9.798 41.4824 9.752C41.5054 8.993 42.6784 7.751 44.0354 7.751C45.3694 7.751 45.8064 8.556 45.8064 9.2C45.8064 9.499 45.7374 9.591 45.6684 9.637C45.4844 9.775 44.9784 9.867 43.2764 9.867H41.6434Z" fill="black"/>
<path d="M47.8645 11.27C47.7495 11.408 47.6805 11.615 47.6805 11.845C47.6805 12.075 47.7725 12.374 48.0255 12.581L53.3845 12.075C53.4995 11.937 53.5685 11.73 53.5685 11.5C53.5685 11.201 53.4765 10.925 53.2235 10.764L47.8645 11.27Z" fill="black"/>
<path d="M68.5947 7.038C68.5947 5.98 68.5487 3.128 68.9397 2.3C69.0317 2.116 69.4917 1.932 70.2277 1.817L70.5497 1.771C70.6877 1.633 70.6877 1.311 70.5037 1.196C69.7217 1.242 69.1237 1.265 68.1347 1.265C67.2607 1.265 66.4787 1.242 65.4207 1.196C65.2367 1.265 65.2137 1.633 65.3747 1.771L65.7657 1.817C66.6857 1.932 67.0537 2.07 67.1917 2.277C67.6287 2.967 67.6517 5.957 67.6517 7.038V11.96C67.6517 12.443 67.6517 12.811 67.5597 12.926H67.5137C66.4327 11.822 65.3057 10.534 63.7187 8.763L61.4877 6.256C60.7287 5.405 58.0147 2.369 57.5547 1.196C57.2557 1.242 56.8647 1.265 56.4967 1.265C56.0827 1.265 54.8637 1.265 53.8977 1.196C53.7137 1.288 53.7137 1.633 53.8517 1.771L54.2427 1.817C54.7947 1.886 55.3467 2.047 55.6687 2.369C56.1517 2.898 56.1747 3.381 56.1747 4.025V10.672C56.1747 11.776 56.1977 14.582 55.8757 15.41C55.7607 15.663 55.3927 15.801 54.8637 15.87L54.2427 15.939C54.1047 16.077 54.1277 16.399 54.2887 16.514C55.0937 16.468 55.7147 16.445 56.6807 16.445C57.5317 16.445 58.3367 16.468 59.3717 16.514C59.5327 16.399 59.5557 16.123 59.4177 15.939L58.7047 15.87C58.1297 15.824 57.6697 15.686 57.5317 15.433C57.1407 14.743 57.1177 11.753 57.1177 10.672V5.658C57.1177 4.968 57.1407 4.439 57.2327 4.163H57.2787C57.7617 4.669 59.3257 6.555 59.9467 7.268L65.2827 13.34C67.2837 15.617 67.9507 16.422 68.2267 16.813C68.4797 16.813 68.6177 16.698 68.6637 16.56C68.5947 15.962 68.5947 13.225 68.5947 12.535V7.038Z" fill="black"/>
<path d="M76.8041 10.557C77.7701 10.557 78.0921 10.534 78.1611 10.396C78.2071 10.304 78.2531 10.12 78.2531 9.798C78.2531 8.418 76.9651 7.061 74.9871 7.061C72.2271 7.061 70.3641 9.43 70.3641 12.259C70.3641 13.271 70.6401 14.352 71.3301 15.249C71.9971 16.123 73.1701 16.767 74.6651 16.767C75.8611 16.767 77.5171 16.192 78.2761 14.628C78.2531 14.421 78.0921 14.283 77.8621 14.352C77.1491 15.249 76.5051 15.479 75.7461 15.479C73.2851 15.479 71.9281 13.501 71.9281 11.178C71.9281 10.603 71.9511 10.557 72.5491 10.557H76.8041ZM72.3421 9.867C72.1811 9.867 72.1811 9.798 72.1811 9.752C72.2041 8.993 73.3771 7.751 74.7341 7.751C76.0681 7.751 76.5051 8.556 76.5051 9.2C76.5051 9.499 76.4361 9.591 76.3671 9.637C76.1831 9.775 75.6771 9.867 73.9751 9.867H72.3421Z" fill="black"/>
<path d="M79.8972 13.869C79.8972 15.525 79.8742 15.755 79.0232 15.87L78.5402 15.939C78.3792 16.054 78.4252 16.445 78.5862 16.514C79.2302 16.468 79.9202 16.445 80.7482 16.445C81.5532 16.445 82.2202 16.468 82.9102 16.514C83.0712 16.445 83.1172 16.054 82.9562 15.939L82.4732 15.87C81.6452 15.755 81.5992 15.525 81.5992 13.869V9.729C81.5992 8.786 81.6452 7.682 81.6912 6.877C81.6682 6.785 81.5762 6.739 81.4612 6.739C80.9322 7.084 79.6212 7.682 79.0922 7.866C78.9772 7.935 78.9772 8.188 79.0692 8.28L79.2762 8.418C79.8972 8.832 79.8972 8.947 79.8972 9.844V13.869ZM80.6562 2.093C79.9662 2.093 79.4142 2.576 79.4142 3.335C79.4142 3.956 79.8742 4.485 80.5872 4.485C81.2312 4.485 81.8062 4.117 81.8062 3.289C81.8062 2.645 81.3462 2.093 80.6562 2.093Z" fill="black"/>
<path d="M86.2415 2.99C86.2415 1.978 86.2875 0.828 86.3105 0.138C86.2645 0.0459994 86.1725 0 86.0805 0C85.2525 0.437 84.1715 0.782 83.5965 0.966C83.4815 1.035 83.4815 1.357 83.5965 1.426L83.8265 1.564C84.5165 1.978 84.5395 2.116 84.5395 3.473V13.869C84.5395 15.525 84.5165 15.755 83.6655 15.87L83.1365 15.939C82.9755 16.054 83.0215 16.445 83.1825 16.514C83.8725 16.468 84.5625 16.445 85.3905 16.445C86.1955 16.445 86.8625 16.468 87.6215 16.514C87.7825 16.445 87.8285 16.054 87.6675 15.939L87.1155 15.87C86.2875 15.755 86.2415 15.525 86.2415 13.869V2.99Z" fill="black"/>
<path d="M91.4411 7.061C89.6931 7.061 88.3131 8.004 88.3131 9.683C88.3131 10.948 89.2561 11.753 90.5901 12.512C91.4411 12.995 92.3611 13.57 92.3611 14.628C92.3611 15.617 91.6481 16.1 90.8201 16.1C89.5091 16.1 88.7731 14.996 88.3821 13.731C88.2671 13.593 87.9681 13.616 87.8531 13.754C87.8071 14.513 87.9451 15.64 88.1291 16.077C88.7041 16.537 89.5091 16.767 90.5901 16.767C92.2921 16.767 93.9021 15.893 93.9021 14.145C93.9021 12.512 92.7751 11.73 91.5561 11.04C90.7511 10.58 89.7851 10.074 89.7851 9.131C89.7851 8.303 90.3601 7.728 91.2571 7.728C92.2001 7.728 92.8901 8.395 93.2811 9.407C93.3961 9.545 93.7411 9.499 93.8331 9.338C93.8331 8.717 93.6721 7.981 93.4651 7.475C93.2581 7.291 92.4071 7.061 91.4411 7.061Z" fill="black"/>
<path d="M100.808 10.557C101.774 10.557 102.096 10.534 102.165 10.396C102.211 10.304 102.257 10.12 102.257 9.798C102.257 8.418 100.969 7.061 98.9907 7.061C96.2307 7.061 94.3677 9.43 94.3677 12.259C94.3677 13.271 94.6437 14.352 95.3337 15.249C96.0007 16.123 97.1737 16.767 98.6687 16.767C99.8647 16.767 101.521 16.192 102.28 14.628C102.257 14.421 102.096 14.283 101.866 14.352C101.153 15.249 100.509 15.479 99.7497 15.479C97.2887 15.479 95.9317 13.501 95.9317 11.178C95.9317 10.603 95.9547 10.557 96.5527 10.557H100.808ZM96.3457 9.867C96.1847 9.867 96.1847 9.798 96.1847 9.752C96.2077 8.993 97.3807 7.751 98.7377 7.751C100.072 7.751 100.509 8.556 100.509 9.2C100.509 9.499 100.44 9.591 100.371 9.637C100.187 9.775 99.6807 9.867 97.9787 9.867H96.3457Z" fill="black"/>
<path d="M103.901 13.869C103.901 15.525 103.878 15.755 103.027 15.87L102.544 15.939C102.383 16.054 102.429 16.445 102.59 16.514C103.234 16.468 103.924 16.445 104.752 16.445C105.557 16.445 106.224 16.468 106.845 16.514C107.006 16.445 107.052 16.054 106.891 15.939L106.477 15.87C105.649 15.732 105.603 15.525 105.603 13.869V10.35C105.603 9.683 105.649 9.361 105.948 8.97C106.27 8.533 107.029 8.165 107.903 8.165C109.467 8.165 110.065 9.131 110.065 10.442V13.869C110.065 15.525 110.042 15.732 109.191 15.87L108.754 15.939C108.593 16.054 108.639 16.445 108.8 16.514C109.421 16.468 110.111 16.445 110.939 16.445C111.744 16.445 112.411 16.468 113.101 16.514C113.262 16.445 113.308 16.054 113.147 15.939L112.641 15.87C111.813 15.755 111.767 15.525 111.767 13.869V9.913C111.767 8.372 110.985 7.061 109.076 7.061C107.903 7.061 106.822 7.636 105.856 8.234C105.695 8.234 105.603 8.119 105.603 7.981C105.603 7.774 105.603 7.429 105.649 6.9C105.603 6.785 105.488 6.739 105.396 6.739C104.936 7.084 103.625 7.682 103.096 7.866C102.981 7.935 102.981 8.188 103.073 8.28L103.28 8.418C103.901 8.832 103.901 8.947 103.901 9.844V13.869Z" fill="black"/>
<path d="M9.2549 21.76C9.2549 21.001 9.2319 20.978 9.9219 20.978H11.5549C12.8199 20.978 13.6939 21.162 14.2229 21.553C14.5679 21.806 14.7289 22.657 14.7979 23.232C14.9129 23.37 15.3039 23.37 15.3959 23.186C15.3269 22.496 15.4879 20.633 15.7409 19.69C15.6949 19.598 15.4419 19.575 15.3269 19.621C14.9819 20.219 14.7749 20.265 13.5329 20.265H4.2179C3.1599 20.265 2.4009 20.288 2.2629 19.552C2.1939 19.483 1.8949 19.506 1.8259 19.552C1.6649 20.472 1.3199 21.944 0.951904 22.979C1.0439 23.163 1.3659 23.278 1.5499 23.14C1.8029 22.565 2.0329 22.059 2.5849 21.553C3.1599 21.024 4.4249 20.978 5.4139 20.978H6.6789C7.3689 20.978 7.3689 21.001 7.3689 21.714V31.995C7.3689 34.41 7.2539 34.755 5.9429 34.87L5.1149 34.939C4.9309 35.054 4.9769 35.445 5.1149 35.514C6.5869 35.468 7.3919 35.445 8.3119 35.445C9.2319 35.445 10.0139 35.468 11.3249 35.514C11.4629 35.445 11.5089 35.031 11.3709 34.939L10.6349 34.87C9.3009 34.755 9.2549 34.41 9.2549 31.995V21.76Z" fill="black"/>
<path d="M23.4443 35.813C27.8833 35.813 31.4253 32.432 31.4253 27.786C31.4253 23.738 28.7573 19.897 23.4443 19.897C18.7063 19.897 15.2563 23.416 15.2563 28.016C15.2563 32.156 18.3383 35.813 23.4443 35.813ZM23.7433 35.1C19.2123 35.1 17.5563 30.684 17.5563 27.28C17.5563 22.243 20.6613 20.61 23.0533 20.61C27.4463 20.61 29.1253 24.704 29.1253 28.499C29.1253 33.03 26.5033 35.1 23.7433 35.1Z" fill="black"/>
<path d="M40.6925 35.813C45.1315 35.813 48.6735 32.432 48.6735 27.786C48.6735 23.738 46.0055 19.897 40.6925 19.897C35.9545 19.897 32.5045 23.416 32.5045 28.016C32.5045 32.156 35.5865 35.813 40.6925 35.813ZM40.9915 35.1C36.4605 35.1 34.8045 30.684 34.8045 27.28C34.8045 22.243 37.9095 20.61 40.3015 20.61C44.6945 20.61 46.3735 24.704 46.3735 28.499C46.3735 33.03 43.7515 35.1 40.9915 35.1Z" fill="black"/>
<path d="M51.6387 31.995C51.6387 34.41 51.5927 34.732 50.2587 34.87L49.5687 34.939C49.4307 35.077 49.4767 35.445 49.6147 35.514C50.9027 35.468 51.6387 35.445 52.6047 35.445H54.7207C57.0897 35.445 59.2747 35.468 60.4477 35.514C60.7697 34.893 61.4137 32.547 61.4137 32.294C61.4137 32.133 60.9767 32.041 60.8387 32.156C60.3787 33.329 59.7807 34.157 59.3207 34.433C58.9527 34.64 58.4697 34.732 56.5147 34.732C54.6977 34.732 54.2607 34.456 54.0077 34.203C53.5937 33.766 53.5247 33.168 53.5247 31.719V23.715C53.5247 21.3 53.5707 20.932 54.9277 20.817L55.4797 20.771C55.6177 20.679 55.5717 20.265 55.4337 20.196C54.2837 20.242 53.5017 20.265 52.6047 20.265C51.6847 20.265 50.9027 20.242 49.6147 20.196C49.4767 20.265 49.4307 20.679 49.5687 20.771L50.1437 20.817C51.5927 20.932 51.6387 21.3 51.6387 23.715V31.995Z" fill="black"/>
<path d="M58.3175 20.794C59.2835 20.886 59.5595 21.507 59.9965 22.45C61.4915 25.647 62.9175 28.844 64.3895 32.041C64.6885 32.708 65.5855 34.778 65.9765 35.744C66.0915 35.79 66.2065 35.813 66.3215 35.813C66.4365 35.813 66.5285 35.79 66.5975 35.744C67.2645 33.835 68.6445 30.891 69.4725 29.212C70.1855 30.822 71.5195 33.697 72.2555 35.744C72.3475 35.79 72.4625 35.813 72.5775 35.813C72.6925 35.813 72.7845 35.79 72.8535 35.744C73.7965 33.283 74.7165 31.029 75.7285 28.683L77.4075 24.796C78.7875 21.599 78.9945 20.909 80.1445 20.794L80.5815 20.748C80.7425 20.564 80.7195 20.265 80.5355 20.196C79.9375 20.242 79.2705 20.265 78.3965 20.265C77.6835 20.265 77.0625 20.242 76.1885 20.196C76.0045 20.288 75.9815 20.541 76.1655 20.748L76.8325 20.794C77.3155 20.817 77.5915 21.001 77.5915 21.323C77.5915 21.599 77.2005 22.588 76.9015 23.416C76.7405 23.83 75.5215 26.889 75.0615 27.993C74.3945 29.626 73.7045 31.236 72.9915 32.846C72.2325 31.098 71.4275 29.373 70.6455 27.602C70.5305 27.326 70.4845 27.142 70.4845 27.05C70.4845 26.958 70.5765 26.728 70.6915 26.498C71.0365 25.693 72.0025 23.692 72.4855 22.841C72.9915 21.898 73.4055 20.863 74.3715 20.794L75.0385 20.748C75.1765 20.564 75.1535 20.265 74.9925 20.196C74.4635 20.242 73.5435 20.265 72.7845 20.265C71.9335 20.265 71.2435 20.242 70.6225 20.196C70.4615 20.265 70.4155 20.518 70.5765 20.748L71.2665 20.794C72.0025 20.84 72.1175 21.093 71.2895 23.048C70.7835 24.29 70.3695 25.164 69.9325 26.061C69.2885 24.635 68.6445 23.186 68.1615 22.059C67.7245 21.024 67.7475 20.863 68.6445 20.794L69.2425 20.748C69.3805 20.564 69.3575 20.265 69.1965 20.196C68.6675 20.242 67.8165 20.265 66.6665 20.265C65.7465 20.265 64.8725 20.242 64.2055 20.196C64.0215 20.288 63.9985 20.564 64.1595 20.748L64.7115 20.794C65.4935 20.863 65.8385 21.346 66.1835 22.059C67.0575 23.899 67.9085 25.739 68.7135 27.579C68.8285 27.855 68.8975 28.062 68.8975 28.177C68.8975 28.292 68.7365 28.683 68.5295 29.12C67.9315 30.408 67.3105 31.696 66.7585 32.846C65.4245 30.017 64.0675 27.142 62.7795 24.267C62.0665 22.634 61.5835 21.461 61.5835 21.185C61.5835 20.978 61.8595 20.84 62.3425 20.794L62.8715 20.748C63.0095 20.587 63.0325 20.265 62.8255 20.196C62.0205 20.242 60.8475 20.265 60.2035 20.265C59.4905 20.265 58.4555 20.242 57.8345 20.196C57.6505 20.288 57.6275 20.61 57.7655 20.748L58.3175 20.794Z" fill="black"/>
<path d="M87.7203 35.813C92.1593 35.813 95.7013 32.432 95.7013 27.786C95.7013 23.738 93.0333 19.897 87.7203 19.897C82.9823 19.897 79.5323 23.416 79.5323 28.016C79.5323 32.156 82.6143 35.813 87.7203 35.813ZM88.0193 35.1C83.4883 35.1 81.8323 30.684 81.8323 27.28C81.8323 22.243 84.9373 20.61 87.3293 20.61C91.7223 20.61 93.4013 24.704 93.4013 28.499C93.4013 33.03 90.7793 35.1 88.0193 35.1Z" fill="black"/>
<path d="M98.6665 31.995C98.6665 34.41 98.6205 34.709 97.2865 34.87L96.7115 34.939C96.5735 35.1 96.6195 35.445 96.7575 35.514C97.8385 35.468 98.6665 35.445 99.6325 35.445C100.552 35.445 101.334 35.468 102.369 35.514C102.507 35.445 102.553 35.054 102.415 34.939L101.933 34.87C100.599 34.686 100.552 34.41 100.552 31.995V29.097C100.552 28.614 100.598 28.591 101.633 28.591C102.553 28.591 102.922 28.821 103.267 29.327C103.98 30.362 104.922 31.949 105.521 32.8C107.153 35.123 108.327 35.698 110.282 35.698C110.719 35.698 111.087 35.652 111.294 35.583C111.409 35.491 111.386 35.307 111.271 35.261C110.649 35.215 110.075 34.962 109.684 34.617C108.12 33.306 106.901 31.466 105.061 28.499C104.946 28.315 104.831 28.085 104.946 27.947C106.096 27.487 107.821 26.291 107.821 24.106C107.821 22.496 107.015 21.461 105.911 20.886C104.853 20.311 103.497 20.196 102.071 20.196C99.8165 20.196 98.2295 20.265 96.9415 20.38C96.7575 20.472 96.7575 20.84 96.9185 20.955L97.6545 21.047C98.5975 21.162 98.6665 21.553 98.6665 23.738V31.995ZM100.552 21.645C100.552 21.001 100.622 20.909 102.048 20.909C104.601 20.909 105.728 22.634 105.728 24.451C105.728 26.015 105.198 26.82 104.577 27.303C103.91 27.809 103.036 27.901 102.208 27.901C101.035 27.901 100.69 27.855 100.621 27.786C100.552 27.694 100.552 27.441 100.552 27.027V21.645Z" fill="black"/>
<path d="M112.456 31.995C112.456 34.41 112.41 34.686 111.191 34.87L110.731 34.939C110.593 35.1 110.639 35.445 110.777 35.514C111.72 35.468 112.502 35.445 113.445 35.445C114.342 35.445 115.124 35.468 116.251 35.514C116.389 35.445 116.435 35.031 116.297 34.939L115.676 34.87C114.388 34.732 114.342 34.41 114.342 31.995V29.028C114.342 28.223 114.388 27.924 114.733 27.924C115.285 27.924 115.653 28.384 116.964 29.856L118.804 31.926C119.678 32.915 120.276 33.536 120.713 34.088C120.874 34.295 121.035 34.479 121.035 34.617C121.035 34.732 120.805 34.801 120.483 34.847L119.954 34.939C119.816 35.077 119.885 35.468 120.046 35.514C121.104 35.468 121.909 35.445 122.852 35.445C123.933 35.445 124.83 35.468 125.428 35.514C125.589 35.445 125.635 35.054 125.474 34.939L124.853 34.87C124.071 34.778 123.565 34.479 123.013 33.927C121.219 32.041 119.448 29.971 117.263 27.464C116.964 27.096 116.826 26.912 116.826 26.751C116.826 26.567 117.033 26.36 117.355 26.038L119.425 24.083C120.713 22.864 122.001 21.783 122.645 21.415C123.289 21.047 124.186 20.817 124.784 20.771C124.922 20.633 124.899 20.311 124.738 20.196C124.048 20.242 123.266 20.265 122.461 20.265C121.656 20.265 120.736 20.242 119.931 20.196C119.747 20.311 119.724 20.61 119.885 20.771L120.506 20.909C120.805 20.978 120.897 21.047 120.897 21.139C120.897 21.231 120.851 21.346 120.736 21.507C120.506 21.829 119.379 23.002 118.942 23.416L116.458 25.877C116.205 26.107 115.607 26.705 115.285 26.981C115.124 27.096 114.848 27.234 114.641 27.234C114.388 27.234 114.342 26.797 114.342 26.36V23.715C114.342 21.3 114.388 20.955 115.722 20.817L116.159 20.771C116.297 20.679 116.251 20.265 116.113 20.196C115.124 20.242 114.342 20.265 113.445 20.265C112.41 20.265 111.674 20.242 110.547 20.196C110.409 20.265 110.363 20.679 110.501 20.771L111.076 20.817C112.41 20.932 112.456 21.3 112.456 23.715V31.995Z" fill="black"/>
<path d="M134.048 31.558C134.048 29.373 132.622 28.039 131.173 27.142L129.333 25.992C128.482 25.463 127.378 24.497 127.378 23.163C127.378 22.105 127.861 20.61 130.115 20.61C132.323 20.61 132.944 22.105 133.243 23.209C133.358 23.347 133.726 23.278 133.818 23.14C133.818 22.174 133.611 20.886 133.404 20.334C133.22 20.334 132.898 20.288 132.599 20.196C132.001 20.035 131.173 19.897 130.46 19.897C127.47 19.897 125.768 21.668 125.768 23.853C125.768 25.739 127.102 27.05 128.252 27.809L130.437 29.235C132.116 30.316 132.323 31.443 132.323 32.455C132.323 33.835 131.38 35.1 129.448 35.1C126.78 35.1 125.837 32.846 125.492 31.673C125.4 31.535 125.055 31.581 124.94 31.742C124.986 32.823 125.285 34.456 125.561 34.962C125.998 35.215 127.217 35.813 129.149 35.813C132.139 35.813 134.048 34.088 134.048 31.558Z" fill="black"/>
<path d="M51.2567 50.405C51.2567 52.525 51.2167 52.805 50.0367 52.945L49.5367 53.005C49.4167 53.125 49.4567 53.445 49.5767 53.505C50.5767 53.465 51.2567 53.445 52.0967 53.445C52.8967 53.445 53.5767 53.465 54.5767 53.505C54.6967 53.445 54.7367 53.085 54.6167 53.005L54.1167 52.945C52.9367 52.805 52.8967 52.525 52.8967 50.405V43.285C52.8967 41.165 52.9367 40.825 54.1167 40.725L54.6167 40.685C54.7367 40.605 54.6967 40.245 54.5767 40.185C53.5767 40.225 52.8967 40.245 52.0967 40.245C51.2567 40.245 50.5767 40.225 49.5767 40.185C49.4567 40.245 49.4167 40.605 49.5367 40.685L50.0367 40.725C51.2167 40.825 51.2567 41.165 51.2567 43.285V50.405Z" fill="black"/>
<path d="M67.8745 45.265C67.8745 44.345 67.8345 41.865 68.1745 41.145C68.2545 40.985 68.6545 40.825 69.2945 40.725L69.5745 40.685C69.6945 40.565 69.6945 40.285 69.5345 40.185C68.8545 40.225 68.3345 40.245 67.4745 40.245C66.7145 40.245 66.0345 40.225 65.1145 40.185C64.9545 40.245 64.9345 40.565 65.0745 40.685L65.4145 40.725C66.2145 40.825 66.5345 40.945 66.6545 41.125C67.0345 41.725 67.0545 44.325 67.0545 45.265V49.545C67.0545 49.965 67.0545 50.285 66.9745 50.385H66.9345C65.9945 49.425 65.0145 48.305 63.6345 46.765L61.6945 44.585C61.0345 43.845 58.6745 41.205 58.2745 40.185C58.0145 40.225 57.6745 40.245 57.3545 40.245C56.9945 40.245 55.9345 40.245 55.0945 40.185C54.9345 40.265 54.9345 40.565 55.0545 40.685L55.3945 40.725C55.8745 40.785 56.3545 40.925 56.6345 41.205C57.0545 41.665 57.0745 42.085 57.0745 42.645V48.425C57.0745 49.385 57.0945 51.825 56.8145 52.545C56.7145 52.765 56.3945 52.885 55.9345 52.945L55.3945 53.005C55.2745 53.125 55.2945 53.405 55.4345 53.505C56.1345 53.465 56.6745 53.445 57.5145 53.445C58.2545 53.445 58.9545 53.465 59.8545 53.505C59.9945 53.405 60.0145 53.165 59.8945 53.005L59.2745 52.945C58.7745 52.905 58.3745 52.785 58.2545 52.565C57.9145 51.965 57.8945 49.365 57.8945 48.425V44.065C57.8945 43.465 57.9145 43.005 57.9945 42.765H58.0345C58.4545 43.205 59.8145 44.845 60.3545 45.465L64.9945 50.745C66.7345 52.725 67.3145 53.425 67.5545 53.765C67.7745 53.765 67.8945 53.665 67.9345 53.545C67.8745 53.025 67.8745 50.645 67.8745 50.045V45.265Z" fill="black"/>
<path d="M70.1986 46.925C70.1986 49.505 71.4386 51.325 73.0386 52.425C74.4986 53.405 76.2186 53.765 78.0186 53.765C79.2986 53.765 80.7386 53.465 81.1786 53.305C81.3986 53.225 81.6386 53.145 81.8786 53.105C82.1786 52.725 82.6986 51.405 82.8386 50.365C82.7586 50.225 82.4586 50.185 82.3186 50.285C81.8586 51.465 80.7186 53.145 78.1386 53.145C74.8586 53.145 72.1986 50.825 72.1986 46.625C72.1986 42.485 74.7986 40.545 77.8586 40.545C80.7586 40.545 81.6586 42.105 81.9586 43.465C82.0986 43.585 82.3986 43.565 82.4986 43.425C82.3386 42.205 82.2386 40.945 82.2186 40.485C82.0386 40.505 81.8986 40.465 81.6586 40.405C80.7186 40.145 79.1986 39.925 78.1186 39.925C76.0386 39.925 74.1786 40.485 72.7186 41.625C71.1986 42.805 70.1986 44.705 70.1986 46.925Z" fill="black"/>
<path d="M84.8444 53.725C85.5244 53.725 85.9644 53.265 85.9644 52.625C85.9644 51.985 85.5244 51.445 84.8444 51.445C84.2044 51.445 83.7244 51.945 83.7244 52.625C83.7244 53.305 84.2644 53.725 84.8444 53.725Z" fill="black"/>
</svg>
