<svg width="390" height="76" viewBox="0 0 390 76" fill="none" xmlns="http://www.w3.org/2000/svg">
<path d="M340.5 35H367.5C367.898 35 368.279 34.842 368.561 34.5607C368.842 34.2794 369 33.8978 369 33.5C369 33.1022 368.842 32.7206 368.561 32.4393C368.279 32.158 367.898 32 367.5 32H340.5C340.102 32 339.721 32.158 339.439 32.4393C339.158 32.7206 339 33.1022 339 33.5C339 33.8978 339.158 34.2794 339.439 34.5607C339.721 34.842 340.102 35 340.5 35ZM367.5 47H340.5C340.102 47 339.721 47.158 339.439 47.4393C339.158 47.7206 339 48.1022 339 48.5C339 48.8978 339.158 49.2794 339.439 49.5607C339.721 49.842 340.102 50 340.5 50H367.5C367.898 50 368.279 49.842 368.561 49.5607C368.842 49.2794 369 48.8978 369 48.5C369 48.1022 368.842 47.7206 368.561 47.4393C368.279 47.158 367.898 47 367.5 47ZM367.5 39.5H340.5C340.102 39.5 339.721 39.658 339.439 39.9393C339.158 40.2206 339 40.6022 339 41C339 41.3978 339.158 41.7794 339.439 42.0607C339.721 42.342 340.102 42.5 340.5 42.5H367.5C367.898 42.5 368.279 42.342 368.561 42.0607C368.842 41.7794 369 41.3978 369 41C369 40.6022 368.842 40.2206 368.561 39.9393C368.279 39.658 367.898 39.5 367.5 39.5Z" fill="white"/>
<path d="M178.236 68.96C178.236 71.08 178.196 71.36 177.016 71.5L176.516 71.56C176.396 71.68 176.436 72 176.556 72.06C177.556 72.02 178.236 72 179.076 72C179.876 72 180.556 72.02 181.556 72.06C181.676 72 181.716 71.64 181.596 71.56L181.096 71.5C179.916 71.36 179.876 71.08 179.876 68.96V61.84C179.876 59.72 179.916 59.38 181.096 59.28L181.596 59.24C181.716 59.16 181.676 58.8 181.556 58.74C180.556 58.78 179.876 58.8 179.076 58.8C178.236 58.8 177.556 58.78 176.556 58.74C176.436 58.8 176.396 59.16 176.516 59.24L177.016 59.28C178.196 59.38 178.236 59.72 178.236 61.84V68.96ZM194.854 63.82C194.854 62.9 194.814 60.42 195.154 59.7C195.234 59.54 195.634 59.38 196.274 59.28L196.554 59.24C196.674 59.12 196.674 58.84 196.514 58.74C195.834 58.78 195.314 58.8 194.454 58.8C193.694 58.8 193.014 58.78 192.094 58.74C191.934 58.8 191.914 59.12 192.054 59.24L192.394 59.28C193.194 59.38 193.514 59.5 193.634 59.68C194.014 60.28 194.034 62.88 194.034 63.82V68.1C194.034 68.52 194.034 68.84 193.954 68.94H193.914C192.974 67.98 191.994 66.86 190.614 65.32L188.674 63.14C188.014 62.4 185.654 59.76 185.254 58.74C184.994 58.78 184.654 58.8 184.334 58.8C183.974 58.8 182.914 58.8 182.074 58.74C181.914 58.82 181.914 59.12 182.034 59.24L182.374 59.28C182.854 59.34 183.334 59.48 183.614 59.76C184.034 60.22 184.054 60.64 184.054 61.2V66.98C184.054 67.94 184.074 70.38 183.794 71.1C183.694 71.32 183.374 71.44 182.914 71.5L182.374 71.56C182.254 71.68 182.274 71.96 182.414 72.06C183.114 72.02 183.654 72 184.494 72C185.234 72 185.934 72.02 186.834 72.06C186.974 71.96 186.994 71.72 186.874 71.56L186.254 71.5C185.754 71.46 185.354 71.34 185.234 71.12C184.894 70.52 184.874 67.92 184.874 66.98V62.62C184.874 62.02 184.894 61.56 184.974 61.32H185.014C185.434 61.76 186.794 63.4 187.334 64.02L191.974 69.3C193.714 71.28 194.294 71.98 194.534 72.32C194.754 72.32 194.874 72.22 194.914 72.1C194.854 71.58 194.854 69.2 194.854 68.6V63.82ZM197.178 65.48C197.178 68.06 198.418 69.88 200.018 70.98C201.478 71.96 203.198 72.32 204.998 72.32C206.278 72.32 207.718 72.02 208.158 71.86C208.378 71.78 208.618 71.7 208.858 71.66C209.158 71.28 209.678 69.96 209.818 68.92C209.738 68.78 209.438 68.74 209.298 68.84C208.838 70.02 207.698 71.7 205.118 71.7C201.838 71.7 199.178 69.38 199.178 65.18C199.178 61.04 201.778 59.1 204.838 59.1C207.738 59.1 208.638 60.66 208.938 62.02C209.078 62.14 209.378 62.12 209.478 61.98C209.318 60.76 209.218 59.5 209.198 59.04C209.018 59.06 208.878 59.02 208.638 58.96C207.698 58.7 206.178 58.48 205.098 58.48C203.018 58.48 201.158 59.04 199.698 60.18C198.178 61.36 197.178 63.26 197.178 65.48ZM211.824 72.28C212.504 72.28 212.944 71.82 212.944 71.18C212.944 70.54 212.504 70 211.824 70C211.184 70 210.704 70.5 210.704 71.18C210.704 71.86 211.244 72.28 211.824 72.28Z" fill="white"/>
<path d="M129.921 20.75C129.921 24.425 129.851 24.915 127.821 25.125L126.771 25.23C126.561 25.44 126.631 26 126.841 26.105C128.801 26.035 129.921 26 131.391 26H134.611C138.216 26 141.541 26.035 143.326 26.105C143.816 25.16 144.796 21.59 144.796 21.205C144.796 20.96 144.131 20.82 143.921 20.995C143.221 22.78 142.311 24.04 141.611 24.46C141.051 24.775 140.316 24.915 137.341 24.915C134.576 24.915 133.911 24.495 133.526 24.11C132.896 23.445 132.791 22.535 132.791 20.33V8.15C132.791 4.475 132.861 3.915 134.926 3.74L135.766 3.67C135.976 3.53 135.906 2.9 135.696 2.795C133.946 2.865 132.756 2.9 131.391 2.9C129.991 2.9 128.801 2.865 126.841 2.795C126.631 2.9 126.561 3.53 126.771 3.67L127.646 3.74C129.851 3.915 129.921 4.475 129.921 8.15V20.75ZM146.642 22.08C146.642 24.6 146.607 24.95 145.312 25.125L144.577 25.23C144.332 25.405 144.402 26 144.647 26.105C145.627 26.035 146.677 26 147.937 26C149.162 26 150.177 26.035 151.227 26.105C151.472 26 151.542 25.405 151.297 25.23L150.562 25.125C149.302 24.95 149.232 24.6 149.232 22.08V15.78C149.232 14.345 149.302 12.665 149.372 11.44C149.337 11.3 149.197 11.23 149.022 11.23C148.217 11.755 146.222 12.665 145.417 12.945C145.242 13.05 145.242 13.435 145.382 13.575L145.697 13.785C146.642 14.415 146.642 14.59 146.642 15.955V22.08ZM147.797 4.16C146.747 4.16 145.907 4.895 145.907 6.05C145.907 6.995 146.607 7.8 147.692 7.8C148.672 7.8 149.547 7.24 149.547 5.98C149.547 5 148.847 4.16 147.797 4.16ZM161.651 17.04C163.121 17.04 163.611 17.005 163.716 16.795C163.786 16.655 163.856 16.375 163.856 15.885C163.856 13.785 161.896 11.72 158.886 11.72C154.686 11.72 151.851 15.325 151.851 19.63C151.851 21.17 152.271 22.815 153.321 24.18C154.336 25.51 156.121 26.49 158.396 26.49C160.216 26.49 162.736 25.615 163.891 23.235C163.856 22.92 163.611 22.71 163.261 22.815C162.176 24.18 161.196 24.53 160.041 24.53C156.296 24.53 154.231 21.52 154.231 17.985C154.231 17.11 154.266 17.04 155.176 17.04H161.651ZM154.861 15.99C154.616 15.99 154.616 15.885 154.616 15.815C154.651 14.66 156.436 12.77 158.501 12.77C160.531 12.77 161.196 13.995 161.196 14.975C161.196 15.43 161.091 15.57 160.986 15.64C160.706 15.85 159.936 15.99 157.346 15.99H154.861ZM164.328 18.125C164.153 18.335 164.048 18.65 164.048 19C164.048 19.35 164.188 19.805 164.573 20.12L172.728 19.35C172.903 19.14 173.008 18.825 173.008 18.475C173.008 18.02 172.868 17.6 172.483 17.355L164.328 18.125ZM195.874 11.685C195.874 10.075 195.804 5.735 196.399 4.475C196.539 4.195 197.239 3.915 198.359 3.74L198.849 3.67C199.059 3.46 199.059 2.97 198.779 2.795C197.589 2.865 196.679 2.9 195.174 2.9C193.844 2.9 192.654 2.865 191.044 2.795C190.764 2.9 190.729 3.46 190.974 3.67L191.569 3.74C192.969 3.915 193.529 4.125 193.739 4.44C194.404 5.49 194.439 10.04 194.439 11.685V19.175C194.439 19.91 194.439 20.47 194.299 20.645H194.229C192.584 18.965 190.869 17.005 188.454 14.31L185.059 10.495C183.904 9.2 179.774 4.58 179.074 2.795C178.619 2.865 178.024 2.9 177.464 2.9C176.834 2.9 174.979 2.9 173.509 2.795C173.229 2.935 173.229 3.46 173.439 3.67L174.034 3.74C174.874 3.845 175.714 4.09 176.204 4.58C176.939 5.385 176.974 6.12 176.974 7.1V17.215C176.974 18.895 177.009 23.165 176.519 24.425C176.344 24.81 175.784 25.02 174.979 25.125L174.034 25.23C173.824 25.44 173.859 25.93 174.104 26.105C175.329 26.035 176.274 26 177.744 26C179.039 26 180.264 26.035 181.839 26.105C182.084 25.93 182.119 25.51 181.909 25.23L180.824 25.125C179.949 25.055 179.249 24.845 179.039 24.46C178.444 23.41 178.409 18.86 178.409 17.215V9.585C178.409 8.535 178.444 7.73 178.584 7.31H178.654C179.389 8.08 181.769 10.95 182.714 12.035L190.834 21.275C193.879 24.74 194.894 25.965 195.314 26.56C195.699 26.56 195.909 26.385 195.979 26.175C195.874 25.265 195.874 21.1 195.874 20.05V11.685ZM208.366 17.04C209.836 17.04 210.326 17.005 210.431 16.795C210.501 16.655 210.571 16.375 210.571 15.885C210.571 13.785 208.611 11.72 205.601 11.72C201.401 11.72 198.566 15.325 198.566 19.63C198.566 21.17 198.986 22.815 200.036 24.18C201.051 25.51 202.836 26.49 205.111 26.49C206.931 26.49 209.451 25.615 210.606 23.235C210.571 22.92 210.326 22.71 209.976 22.815C208.891 24.18 207.911 24.53 206.756 24.53C203.011 24.53 200.946 21.52 200.946 17.985C200.946 17.11 200.981 17.04 201.891 17.04H208.366ZM201.576 15.99C201.331 15.99 201.331 15.885 201.331 15.815C201.366 14.66 203.151 12.77 205.216 12.77C207.246 12.77 207.911 13.995 207.911 14.975C207.911 15.43 207.806 15.57 207.701 15.64C207.421 15.85 206.651 15.99 204.061 15.99H201.576ZM213.073 22.08C213.073 24.6 213.038 24.95 211.743 25.125L211.008 25.23C210.763 25.405 210.833 26 211.078 26.105C212.058 26.035 213.108 26 214.368 26C215.593 26 216.608 26.035 217.658 26.105C217.903 26 217.973 25.405 217.728 25.23L216.993 25.125C215.733 24.95 215.663 24.6 215.663 22.08V15.78C215.663 14.345 215.733 12.665 215.803 11.44C215.768 11.3 215.628 11.23 215.453 11.23C214.648 11.755 212.653 12.665 211.848 12.945C211.673 13.05 211.673 13.435 211.813 13.575L212.128 13.785C213.073 14.415 213.073 14.59 213.073 15.955V22.08ZM214.228 4.16C213.178 4.16 212.338 4.895 212.338 6.05C212.338 6.995 213.038 7.8 214.123 7.8C215.103 7.8 215.978 7.24 215.978 5.98C215.978 5 215.278 4.16 214.228 4.16ZM222.728 5.525C222.728 3.985 222.798 2.235 222.833 1.185C222.763 1.045 222.623 0.974999 222.483 0.974999C221.223 1.64 219.578 2.165 218.703 2.445C218.528 2.55 218.528 3.04 218.703 3.145L219.053 3.355C220.103 3.985 220.138 4.195 220.138 6.26V22.08C220.138 24.6 220.103 24.95 218.808 25.125L218.003 25.23C217.758 25.405 217.828 26 218.073 26.105C219.123 26.035 220.173 26 221.433 26C222.658 26 223.673 26.035 224.828 26.105C225.073 26 225.143 25.405 224.898 25.23L224.058 25.125C222.798 24.95 222.728 24.6 222.728 22.08V5.525ZM230.64 11.72C227.98 11.72 225.88 13.155 225.88 15.71C225.88 17.635 227.315 18.86 229.345 20.015C230.64 20.75 232.04 21.625 232.04 23.235C232.04 24.74 230.955 25.475 229.695 25.475C227.7 25.475 226.58 23.795 225.985 21.87C225.81 21.66 225.355 21.695 225.18 21.905C225.11 23.06 225.32 24.775 225.6 25.44C226.475 26.14 227.7 26.49 229.345 26.49C231.935 26.49 234.385 25.16 234.385 22.5C234.385 20.015 232.67 18.825 230.815 17.775C229.59 17.075 228.12 16.305 228.12 14.87C228.12 13.61 228.995 12.735 230.36 12.735C231.795 12.735 232.845 13.75 233.44 15.29C233.615 15.5 234.14 15.43 234.28 15.185C234.28 14.24 234.035 13.12 233.72 12.35C233.405 12.07 232.11 11.72 230.64 11.72ZM244.893 17.04C246.363 17.04 246.853 17.005 246.958 16.795C247.028 16.655 247.098 16.375 247.098 15.885C247.098 13.785 245.138 11.72 242.128 11.72C237.928 11.72 235.093 15.325 235.093 19.63C235.093 21.17 235.513 22.815 236.563 24.18C237.578 25.51 239.363 26.49 241.638 26.49C243.458 26.49 245.978 25.615 247.133 23.235C247.098 22.92 246.853 22.71 246.503 22.815C245.418 24.18 244.438 24.53 243.283 24.53C239.538 24.53 237.473 21.52 237.473 17.985C237.473 17.11 237.508 17.04 238.418 17.04H244.893ZM238.103 15.99C237.858 15.99 237.858 15.885 237.858 15.815C237.893 14.66 239.678 12.77 241.743 12.77C243.773 12.77 244.438 13.995 244.438 14.975C244.438 15.43 244.333 15.57 244.228 15.64C243.948 15.85 243.178 15.99 240.588 15.99H238.103ZM249.6 22.08C249.6 24.6 249.565 24.95 248.27 25.125L247.535 25.23C247.29 25.405 247.36 26 247.605 26.105C248.585 26.035 249.635 26 250.895 26C252.12 26 253.135 26.035 254.08 26.105C254.325 26 254.395 25.405 254.15 25.23L253.52 25.125C252.26 24.915 252.19 24.6 252.19 22.08V16.725C252.19 15.71 252.26 15.22 252.715 14.625C253.205 13.96 254.36 13.4 255.69 13.4C258.07 13.4 258.98 14.87 258.98 16.865V22.08C258.98 24.6 258.945 24.915 257.65 25.125L256.985 25.23C256.74 25.405 256.81 26 257.055 26.105C258 26.035 259.05 26 260.31 26C261.535 26 262.55 26.035 263.6 26.105C263.845 26 263.915 25.405 263.67 25.23L262.9 25.125C261.64 24.95 261.57 24.6 261.57 22.08V16.06C261.57 13.715 260.38 11.72 257.475 11.72C255.69 11.72 254.045 12.595 252.575 13.505C252.33 13.505 252.19 13.33 252.19 13.12C252.19 12.805 252.19 12.28 252.26 11.475C252.19 11.3 252.015 11.23 251.875 11.23C251.175 11.755 249.18 12.665 248.375 12.945C248.2 13.05 248.2 13.435 248.34 13.575L248.655 13.785C249.6 14.415 249.6 14.59 249.6 15.955V22.08ZM105.574 34.175C105.574 33.02 105.539 32.985 106.589 32.985H109.074C110.999 32.985 112.329 33.265 113.134 33.86C113.659 34.245 113.904 35.54 114.009 36.415C114.184 36.625 114.779 36.625 114.919 36.345C114.814 35.295 115.059 32.46 115.444 31.025C115.374 30.885 114.989 30.85 114.814 30.92C114.289 31.83 113.974 31.9 112.084 31.9H97.909C96.299 31.9 95.144 31.935 94.934 30.815C94.829 30.71 94.374 30.745 94.269 30.815C94.024 32.215 93.499 34.455 92.939 36.03C93.079 36.31 93.569 36.485 93.849 36.275C94.234 35.4 94.584 34.63 95.424 33.86C96.299 33.055 98.224 32.985 99.729 32.985H101.654C102.704 32.985 102.704 33.02 102.704 34.105V49.75C102.704 53.425 102.529 53.95 100.534 54.125L99.274 54.23C98.994 54.405 99.064 55 99.274 55.105C101.514 55.035 102.739 55 104.139 55C105.539 55 106.729 55.035 108.724 55.105C108.934 55 109.004 54.37 108.794 54.23L107.674 54.125C105.644 53.95 105.574 53.425 105.574 49.75V34.175ZM127.167 55.56C133.922 55.56 139.312 50.415 139.312 43.345C139.312 37.185 135.252 31.34 127.167 31.34C119.957 31.34 114.707 36.695 114.707 43.695C114.707 49.995 119.397 55.56 127.167 55.56ZM127.622 54.475C120.727 54.475 118.207 47.755 118.207 42.575C118.207 34.91 122.932 32.425 126.572 32.425C133.257 32.425 135.812 38.655 135.812 44.43C135.812 51.325 131.822 54.475 127.622 54.475ZM153.414 55.56C160.169 55.56 165.559 50.415 165.559 43.345C165.559 37.185 161.499 31.34 153.414 31.34C146.204 31.34 140.954 36.695 140.954 43.695C140.954 49.995 145.644 55.56 153.414 55.56ZM153.869 54.475C146.974 54.475 144.454 47.755 144.454 42.575C144.454 34.91 149.179 32.425 152.819 32.425C159.504 32.425 162.059 38.655 162.059 44.43C162.059 51.325 158.069 54.475 153.869 54.475ZM170.071 49.75C170.071 53.425 170.001 53.915 167.971 54.125L166.921 54.23C166.711 54.44 166.781 55 166.991 55.105C168.951 55.035 170.071 55 171.541 55H174.761C178.366 55 181.691 55.035 183.476 55.105C183.966 54.16 184.946 50.59 184.946 50.205C184.946 49.96 184.281 49.82 184.071 49.995C183.371 51.78 182.461 53.04 181.761 53.46C181.201 53.775 180.466 53.915 177.491 53.915C174.726 53.915 174.061 53.495 173.676 53.11C173.046 52.445 172.941 51.535 172.941 49.33V37.15C172.941 33.475 173.011 32.915 175.076 32.74L175.916 32.67C176.126 32.53 176.056 31.9 175.846 31.795C174.096 31.865 172.906 31.9 171.541 31.9C170.141 31.9 168.951 31.865 166.991 31.795C166.781 31.9 166.711 32.53 166.921 32.67L167.796 32.74C170.001 32.915 170.071 33.475 170.071 37.15V49.75ZM180.235 32.705C181.705 32.845 182.125 33.79 182.79 35.225C185.065 40.09 187.235 44.955 189.475 49.82C189.93 50.835 191.295 53.985 191.89 55.455C192.065 55.525 192.24 55.56 192.415 55.56C192.59 55.56 192.73 55.525 192.835 55.455C193.85 52.55 195.95 48.07 197.21 45.515C198.295 47.965 200.325 52.34 201.445 55.455C201.585 55.525 201.76 55.56 201.935 55.56C202.11 55.56 202.25 55.525 202.355 55.455C203.79 51.71 205.19 48.28 206.73 44.71L209.285 38.795C211.385 33.93 211.7 32.88 213.45 32.705L214.115 32.635C214.36 32.355 214.325 31.9 214.045 31.795C213.135 31.865 212.12 31.9 210.79 31.9C209.705 31.9 208.76 31.865 207.43 31.795C207.15 31.935 207.115 32.32 207.395 32.635L208.41 32.705C209.145 32.74 209.565 33.02 209.565 33.51C209.565 33.93 208.97 35.435 208.515 36.695C208.27 37.325 206.415 41.98 205.715 43.66C204.7 46.145 203.65 48.595 202.565 51.045C201.41 48.385 200.185 45.76 198.995 43.065C198.82 42.645 198.75 42.365 198.75 42.225C198.75 42.085 198.89 41.735 199.065 41.385C199.59 40.16 201.06 37.115 201.795 35.82C202.565 34.385 203.195 32.81 204.665 32.705L205.68 32.635C205.89 32.355 205.855 31.9 205.61 31.795C204.805 31.865 203.405 31.9 202.25 31.9C200.955 31.9 199.905 31.865 198.96 31.795C198.715 31.9 198.645 32.285 198.89 32.635L199.94 32.705C201.06 32.775 201.235 33.16 199.975 36.135C199.205 38.025 198.575 39.355 197.91 40.72C196.93 38.55 195.95 36.345 195.215 34.63C194.55 33.055 194.585 32.81 195.95 32.705L196.86 32.635C197.07 32.355 197.035 31.9 196.79 31.795C195.985 31.865 194.69 31.9 192.94 31.9C191.54 31.9 190.21 31.865 189.195 31.795C188.915 31.935 188.88 32.355 189.125 32.635L189.965 32.705C191.155 32.81 191.68 33.545 192.205 34.63C193.535 37.43 194.83 40.23 196.055 43.03C196.23 43.45 196.335 43.765 196.335 43.94C196.335 44.115 196.09 44.71 195.775 45.375C194.865 47.335 193.92 49.295 193.08 51.045C191.05 46.74 188.985 42.365 187.025 37.99C185.94 35.505 185.205 33.72 185.205 33.3C185.205 32.985 185.625 32.775 186.36 32.705L187.165 32.635C187.375 32.39 187.41 31.9 187.095 31.795C185.87 31.865 184.085 31.9 183.105 31.9C182.02 31.9 180.445 31.865 179.5 31.795C179.22 31.935 179.185 32.425 179.395 32.635L180.235 32.705ZM224.978 55.56C231.733 55.56 237.123 50.415 237.123 43.345C237.123 37.185 233.063 31.34 224.978 31.34C217.768 31.34 212.518 36.695 212.518 43.695C212.518 49.995 217.208 55.56 224.978 55.56ZM225.433 54.475C218.538 54.475 216.018 47.755 216.018 42.575C216.018 34.91 220.743 32.425 224.383 32.425C231.068 32.425 233.623 38.655 233.623 44.43C233.623 51.325 229.633 54.475 225.433 54.475ZM241.635 49.75C241.635 53.425 241.565 53.88 239.535 54.125L238.66 54.23C238.45 54.475 238.52 55 238.73 55.105C240.375 55.035 241.635 55 243.105 55C244.505 55 245.695 55.035 247.27 55.105C247.48 55 247.55 54.405 247.34 54.23L246.605 54.125C244.575 53.845 244.505 53.425 244.505 49.75V45.34C244.505 44.605 244.575 44.57 246.15 44.57C247.55 44.57 248.11 44.92 248.635 45.69C249.72 47.265 251.155 49.68 252.065 50.975C254.55 54.51 256.335 55.385 259.31 55.385C259.975 55.385 260.535 55.315 260.85 55.21C261.025 55.07 260.99 54.79 260.815 54.72C259.87 54.65 258.995 54.265 258.4 53.74C256.02 51.745 254.165 48.945 251.365 44.43C251.19 44.15 251.015 43.8 251.19 43.59C252.94 42.89 255.565 41.07 255.565 37.745C255.565 35.295 254.34 33.72 252.66 32.845C251.05 31.97 248.985 31.795 246.815 31.795C243.385 31.795 240.97 31.9 239.01 32.075C238.73 32.215 238.73 32.775 238.975 32.95L240.095 33.09C241.53 33.265 241.635 33.86 241.635 37.185V49.75ZM244.505 34C244.505 33.02 244.61 32.88 246.78 32.88C250.665 32.88 252.38 35.505 252.38 38.27C252.38 40.65 251.575 41.875 250.63 42.61C249.615 43.38 248.285 43.52 247.025 43.52C245.24 43.52 244.715 43.45 244.61 43.345C244.505 43.205 244.505 42.82 244.505 42.19V34ZM262.619 49.75C262.619 53.425 262.549 53.845 260.694 54.125L259.994 54.23C259.784 54.475 259.854 55 260.064 55.105C261.499 55.035 262.689 55 264.124 55C265.489 55 266.679 55.035 268.394 55.105C268.604 55 268.674 54.37 268.464 54.23L267.519 54.125C265.559 53.915 265.489 53.425 265.489 49.75V45.235C265.489 44.01 265.559 43.555 266.084 43.555C266.924 43.555 267.484 44.255 269.479 46.495L272.279 49.645C273.609 51.15 274.519 52.095 275.184 52.935C275.429 53.25 275.674 53.53 275.674 53.74C275.674 53.915 275.324 54.02 274.834 54.09L274.029 54.23C273.819 54.44 273.924 55.035 274.169 55.105C275.779 55.035 277.004 55 278.439 55C280.084 55 281.449 55.035 282.359 55.105C282.604 55 282.674 54.405 282.429 54.23L281.484 54.125C280.294 53.985 279.524 53.53 278.684 52.69C275.954 49.82 273.259 46.67 269.934 42.855C269.479 42.295 269.269 42.015 269.269 41.77C269.269 41.49 269.584 41.175 270.074 40.685L273.224 37.71C275.184 35.855 277.144 34.21 278.124 33.65C279.104 33.09 280.469 32.74 281.379 32.67C281.589 32.46 281.554 31.97 281.309 31.795C280.259 31.865 279.069 31.9 277.844 31.9C276.619 31.9 275.219 31.865 273.994 31.795C273.714 31.97 273.679 32.425 273.924 32.67L274.869 32.88C275.324 32.985 275.464 33.09 275.464 33.23C275.464 33.37 275.394 33.545 275.219 33.79C274.869 34.28 273.154 36.065 272.489 36.695L268.709 40.44C268.324 40.79 267.414 41.7 266.924 42.12C266.679 42.295 266.259 42.505 265.944 42.505C265.559 42.505 265.489 41.84 265.489 41.175V37.15C265.489 33.475 265.559 32.95 267.589 32.74L268.254 32.67C268.464 32.53 268.394 31.9 268.184 31.795C266.679 31.865 265.489 31.9 264.124 31.9C262.549 31.9 261.429 31.865 259.714 31.795C259.504 31.9 259.434 32.53 259.644 32.67L260.519 32.74C262.549 32.915 262.619 33.475 262.619 37.15V49.75ZM295.477 49.085C295.477 45.76 293.307 43.73 291.102 42.365L288.302 40.615C287.007 39.81 285.327 38.34 285.327 36.31C285.327 34.7 286.062 32.425 289.492 32.425C292.852 32.425 293.797 34.7 294.252 36.38C294.427 36.59 294.987 36.485 295.127 36.275C295.127 34.805 294.812 32.845 294.497 32.005C294.217 32.005 293.727 31.935 293.272 31.795C292.362 31.55 291.102 31.34 290.017 31.34C285.467 31.34 282.877 34.035 282.877 37.36C282.877 40.23 284.907 42.225 286.657 43.38L289.982 45.55C292.537 47.195 292.852 48.91 292.852 50.45C292.852 52.55 291.417 54.475 288.477 54.475C284.417 54.475 282.982 51.045 282.457 49.26C282.317 49.05 281.792 49.12 281.617 49.365C281.687 51.01 282.142 53.495 282.562 54.265C283.227 54.65 285.082 55.56 288.022 55.56C292.572 55.56 295.477 52.935 295.477 49.085Z" fill="white"/>
<line x1="211" y1="58.5" x2="390" y2="58.5" stroke="white"/>
<line x1="-4.0513e-08" y1="58.5" x2="175" y2="58.5" stroke="white"/>
</svg>
