<svg width="1440" height="95" viewBox="0 0 1440 95" fill="none" xmlns="http://www.w3.org/2000/svg">
<path d="M694.854 88.44C694.854 91.62 694.794 92.04 693.024 92.25L692.274 92.34C692.094 92.52 692.154 93 692.334 93.09C693.834 93.03 694.854 93 696.114 93C697.314 93 698.334 93.03 699.834 93.09C700.014 93 700.074 92.46 699.894 92.34L699.144 92.25C697.374 92.04 697.314 91.62 697.314 88.44V77.76C697.314 74.58 697.374 74.07 699.144 73.92L699.894 73.86C700.074 73.74 700.014 73.2 699.834 73.11C698.334 73.17 697.314 73.2 696.114 73.2C694.854 73.2 693.834 73.17 692.334 73.11C692.154 73.2 692.094 73.74 692.274 73.86L693.024 73.92C694.794 74.07 694.854 74.58 694.854 77.76V88.44ZM719.781 80.73C719.781 79.35 719.721 75.63 720.231 74.55C720.351 74.31 720.951 74.07 721.911 73.92L722.331 73.86C722.511 73.68 722.511 73.26 722.271 73.11C721.251 73.17 720.471 73.2 719.181 73.2C718.041 73.2 717.021 73.17 715.641 73.11C715.401 73.2 715.371 73.68 715.581 73.86L716.091 73.92C717.291 74.07 717.771 74.25 717.951 74.52C718.521 75.42 718.551 79.32 718.551 80.73V87.15C718.551 87.78 718.551 88.26 718.431 88.41H718.371C716.961 86.97 715.491 85.29 713.421 82.98L710.511 79.71C709.521 78.6 705.981 74.64 705.381 73.11C704.991 73.17 704.481 73.2 704.001 73.2C703.461 73.2 701.871 73.2 700.611 73.11C700.371 73.23 700.371 73.68 700.551 73.86L701.061 73.92C701.781 74.01 702.501 74.22 702.921 74.64C703.551 75.33 703.581 75.96 703.581 76.8V85.47C703.581 86.91 703.611 90.57 703.191 91.65C703.041 91.98 702.561 92.16 701.871 92.25L701.061 92.34C700.881 92.52 700.911 92.94 701.121 93.09C702.171 93.03 702.981 93 704.241 93C705.351 93 706.401 93.03 707.751 93.09C707.961 92.94 707.991 92.58 707.811 92.34L706.881 92.25C706.131 92.19 705.531 92.01 705.351 91.68C704.841 90.78 704.811 86.88 704.811 85.47V78.93C704.811 78.03 704.841 77.34 704.961 76.98H705.021C705.651 77.64 707.691 80.1 708.501 81.03L715.461 88.95C718.071 91.92 718.941 92.97 719.301 93.48C719.631 93.48 719.811 93.33 719.871 93.15C719.781 92.37 719.781 88.8 719.781 87.9V80.73ZM723.267 83.22C723.267 87.09 725.127 89.82 727.527 91.47C729.717 92.94 732.297 93.48 734.997 93.48C736.917 93.48 739.077 93.03 739.737 92.79C740.067 92.67 740.427 92.55 740.787 92.49C741.237 91.92 742.017 89.94 742.227 88.38C742.107 88.17 741.657 88.11 741.447 88.26C740.757 90.03 739.047 92.55 735.177 92.55C730.257 92.55 726.267 89.07 726.267 82.77C726.267 76.56 730.167 73.65 734.757 73.65C739.107 73.65 740.457 75.99 740.907 78.03C741.117 78.21 741.567 78.18 741.717 77.97C741.477 76.14 741.327 74.25 741.297 73.56C741.027 73.59 740.817 73.53 740.457 73.44C739.047 73.05 736.767 72.72 735.147 72.72C732.027 72.72 729.237 73.56 727.047 75.27C724.767 77.04 723.267 79.89 723.267 83.22ZM745.236 93.42C746.256 93.42 746.916 92.73 746.916 91.77C746.916 90.81 746.256 90 745.236 90C744.276 90 743.556 90.75 743.556 91.77C743.556 92.79 744.366 93.42 745.236 93.42Z" fill="white"/>
<line x1="744" y1="73" x2="1442" y2="73" stroke="white" stroke-width="2"/>
<line x1="8.74228e-08" y1="73" x2="689" y2="73.0001" stroke="white" stroke-width="2"/>
<path d="M640.046 24.55C640.046 29.065 639.96 29.667 637.466 29.925L636.176 30.054C635.918 30.312 636.004 31 636.262 31.129C638.67 31.043 640.046 31 641.852 31H645.808C650.237 31 654.322 31.043 656.515 31.129C657.117 29.968 658.321 25.582 658.321 25.109C658.321 24.808 657.504 24.636 657.246 24.851C656.386 27.044 655.268 28.592 654.408 29.108C653.72 29.495 652.817 29.667 649.162 29.667C645.765 29.667 644.948 29.151 644.475 28.678C643.701 27.861 643.572 26.743 643.572 24.034V9.07C643.572 4.555 643.658 3.867 646.195 3.652L647.227 3.566C647.485 3.394 647.399 2.62 647.141 2.491C644.991 2.577 643.529 2.62 641.852 2.62C640.132 2.62 638.67 2.577 636.262 2.491C636.004 2.62 635.918 3.394 636.176 3.566L637.251 3.652C639.96 3.867 640.046 4.555 640.046 9.07V24.55ZM660.588 26.184C660.588 29.28 660.545 29.71 658.954 29.925L658.051 30.054C657.75 30.269 657.836 31 658.137 31.129C659.341 31.043 660.631 31 662.179 31C663.684 31 664.931 31.043 666.221 31.129C666.522 31 666.608 30.269 666.307 30.054L665.404 29.925C663.856 29.71 663.77 29.28 663.77 26.184V18.444C663.77 16.681 663.856 14.617 663.942 13.112C663.899 12.94 663.727 12.854 663.512 12.854C662.523 13.499 660.072 14.617 659.083 14.961C658.868 15.09 658.868 15.563 659.04 15.735L659.427 15.993C660.588 16.767 660.588 16.982 660.588 18.659V26.184ZM662.007 4.168C660.717 4.168 659.685 5.071 659.685 6.49C659.685 7.651 660.545 8.64 661.878 8.64C663.082 8.64 664.157 7.952 664.157 6.404C664.157 5.2 663.297 4.168 662.007 4.168ZM679.028 19.992C680.834 19.992 681.436 19.949 681.565 19.691C681.651 19.519 681.737 19.175 681.737 18.573C681.737 15.993 679.329 13.456 675.631 13.456C670.471 13.456 666.988 17.885 666.988 23.174C666.988 25.066 667.504 27.087 668.794 28.764C670.041 30.398 672.234 31.602 675.029 31.602C677.265 31.602 680.361 30.527 681.78 27.603C681.737 27.216 681.436 26.958 681.006 27.087C679.673 28.764 678.469 29.194 677.05 29.194C672.449 29.194 669.912 25.496 669.912 21.153C669.912 20.078 669.955 19.992 671.073 19.992H679.028ZM670.686 18.702C670.385 18.702 670.385 18.573 670.385 18.487C670.428 17.068 672.621 14.746 675.158 14.746C677.652 14.746 678.469 16.251 678.469 17.455C678.469 18.014 678.34 18.186 678.211 18.272C677.867 18.53 676.921 18.702 673.739 18.702H670.686ZM682.317 21.325C682.102 21.583 681.973 21.97 681.973 22.4C681.973 22.83 682.145 23.389 682.618 23.776L692.637 22.83C692.852 22.572 692.981 22.185 692.981 21.755C692.981 21.196 692.809 20.68 692.336 20.379L682.317 21.325ZM721.073 13.413C721.073 11.435 720.987 6.103 721.718 4.555C721.89 4.211 722.75 3.867 724.126 3.652L724.728 3.566C724.986 3.308 724.986 2.706 724.642 2.491C723.18 2.577 722.062 2.62 720.213 2.62C718.579 2.62 717.117 2.577 715.139 2.491C714.795 2.62 714.752 3.308 715.053 3.566L715.784 3.652C717.504 3.867 718.192 4.125 718.45 4.512C719.267 5.802 719.31 11.392 719.31 13.413V22.615C719.31 23.518 719.31 24.206 719.138 24.421H719.052C717.031 22.357 714.924 19.949 711.957 16.638L707.786 11.951C706.367 10.36 701.293 4.684 700.433 2.491C699.874 2.577 699.143 2.62 698.455 2.62C697.681 2.62 695.402 2.62 693.596 2.491C693.252 2.663 693.252 3.308 693.51 3.566L694.241 3.652C695.273 3.781 696.305 4.082 696.907 4.684C697.81 5.673 697.853 6.576 697.853 7.78V20.207C697.853 22.271 697.896 27.517 697.294 29.065C697.079 29.538 696.391 29.796 695.402 29.925L694.241 30.054C693.983 30.312 694.026 30.914 694.327 31.129C695.832 31.043 696.993 31 698.799 31C700.39 31 701.895 31.043 703.83 31.129C704.131 30.914 704.174 30.398 703.916 30.054L702.583 29.925C701.508 29.839 700.648 29.581 700.39 29.108C699.659 27.818 699.616 22.228 699.616 20.207V10.833C699.616 9.543 699.659 8.554 699.831 8.038H699.917C700.82 8.984 703.744 12.51 704.905 13.843L714.881 25.195C718.622 29.452 719.869 30.957 720.385 31.688C720.858 31.688 721.116 31.473 721.202 31.215C721.073 30.097 721.073 24.98 721.073 23.69V13.413ZM736.421 19.992C738.227 19.992 738.829 19.949 738.958 19.691C739.044 19.519 739.13 19.175 739.13 18.573C739.13 15.993 736.722 13.456 733.024 13.456C727.864 13.456 724.381 17.885 724.381 23.174C724.381 25.066 724.897 27.087 726.187 28.764C727.434 30.398 729.627 31.602 732.422 31.602C734.658 31.602 737.754 30.527 739.173 27.603C739.13 27.216 738.829 26.958 738.399 27.087C737.066 28.764 735.862 29.194 734.443 29.194C729.842 29.194 727.305 25.496 727.305 21.153C727.305 20.078 727.348 19.992 728.466 19.992H736.421ZM728.079 18.702C727.778 18.702 727.778 18.573 727.778 18.487C727.821 17.068 730.014 14.746 732.551 14.746C735.045 14.746 735.862 16.251 735.862 17.455C735.862 18.014 735.733 18.186 735.604 18.272C735.26 18.53 734.314 18.702 731.132 18.702H728.079ZM742.204 26.184C742.204 29.28 742.161 29.71 740.57 29.925L739.667 30.054C739.366 30.269 739.452 31 739.753 31.129C740.957 31.043 742.247 31 743.795 31C745.3 31 746.547 31.043 747.837 31.129C748.138 31 748.224 30.269 747.923 30.054L747.02 29.925C745.472 29.71 745.386 29.28 745.386 26.184V18.444C745.386 16.681 745.472 14.617 745.558 13.112C745.515 12.94 745.343 12.854 745.128 12.854C744.139 13.499 741.688 14.617 740.699 14.961C740.484 15.09 740.484 15.563 740.656 15.735L741.043 15.993C742.204 16.767 742.204 16.982 742.204 18.659V26.184ZM743.623 4.168C742.333 4.168 741.301 5.071 741.301 6.49C741.301 7.651 742.161 8.64 743.494 8.64C744.698 8.64 745.773 7.952 745.773 6.404C745.773 5.2 744.913 4.168 743.623 4.168ZM754.065 5.845C754.065 3.953 754.151 1.803 754.194 0.512998C754.108 0.340997 753.936 0.254999 753.764 0.254999C752.216 1.072 750.195 1.717 749.12 2.061C748.905 2.19 748.905 2.792 749.12 2.921L749.55 3.179C750.84 3.953 750.883 4.211 750.883 6.748V26.184C750.883 29.28 750.84 29.71 749.249 29.925L748.26 30.054C747.959 30.269 748.045 31 748.346 31.129C749.636 31.043 750.926 31 752.474 31C753.979 31 755.226 31.043 756.645 31.129C756.946 31 757.032 30.269 756.731 30.054L755.699 29.925C754.151 29.71 754.065 29.28 754.065 26.184V5.845ZM763.786 13.456C760.518 13.456 757.938 15.219 757.938 18.358C757.938 20.723 759.701 22.228 762.195 23.647C763.786 24.55 765.506 25.625 765.506 27.603C765.506 29.452 764.173 30.355 762.625 30.355C760.174 30.355 758.798 28.291 758.067 25.926C757.852 25.668 757.293 25.711 757.078 25.969C756.992 27.388 757.25 29.495 757.594 30.312C758.669 31.172 760.174 31.602 762.195 31.602C765.377 31.602 768.387 29.968 768.387 26.7C768.387 23.647 766.28 22.185 764.001 20.895C762.496 20.035 760.69 19.089 760.69 17.326C760.69 15.778 761.765 14.703 763.442 14.703C765.205 14.703 766.495 15.95 767.226 17.842C767.441 18.1 768.086 18.014 768.258 17.713C768.258 16.552 767.957 15.176 767.57 14.23C767.183 13.886 765.592 13.456 763.786 13.456ZM781.298 19.992C783.104 19.992 783.706 19.949 783.835 19.691C783.921 19.519 784.007 19.175 784.007 18.573C784.007 15.993 781.599 13.456 777.901 13.456C772.741 13.456 769.258 17.885 769.258 23.174C769.258 25.066 769.774 27.087 771.064 28.764C772.311 30.398 774.504 31.602 777.299 31.602C779.535 31.602 782.631 30.527 784.05 27.603C784.007 27.216 783.706 26.958 783.276 27.087C781.943 28.764 780.739 29.194 779.32 29.194C774.719 29.194 772.182 25.496 772.182 21.153C772.182 20.078 772.225 19.992 773.343 19.992H781.298ZM772.956 18.702C772.655 18.702 772.655 18.573 772.655 18.487C772.698 17.068 774.891 14.746 777.428 14.746C779.922 14.746 780.739 16.251 780.739 17.455C780.739 18.014 780.61 18.186 780.481 18.272C780.137 18.53 779.191 18.702 776.009 18.702H772.956ZM787.081 26.184C787.081 29.28 787.038 29.71 785.447 29.925L784.544 30.054C784.243 30.269 784.329 31 784.63 31.129C785.834 31.043 787.124 31 788.672 31C790.177 31 791.424 31.043 792.585 31.129C792.886 31 792.972 30.269 792.671 30.054L791.897 29.925C790.349 29.667 790.263 29.28 790.263 26.184V19.605C790.263 18.358 790.349 17.756 790.908 17.025C791.51 16.208 792.929 15.52 794.563 15.52C797.487 15.52 798.605 17.326 798.605 19.777V26.184C798.605 29.28 798.562 29.667 796.971 29.925L796.154 30.054C795.853 30.269 795.939 31 796.24 31.129C797.401 31.043 798.691 31 800.239 31C801.744 31 802.991 31.043 804.281 31.129C804.582 31 804.668 30.269 804.367 30.054L803.421 29.925C801.873 29.71 801.787 29.28 801.787 26.184V18.788C801.787 15.907 800.325 13.456 796.756 13.456C794.563 13.456 792.542 14.531 790.736 15.649C790.435 15.649 790.263 15.434 790.263 15.176C790.263 14.789 790.263 14.144 790.349 13.155C790.263 12.94 790.048 12.854 789.876 12.854C789.016 13.499 786.565 14.617 785.576 14.961C785.361 15.09 785.361 15.563 785.533 15.735L785.92 15.993C787.081 16.767 787.081 16.982 787.081 18.659V26.184ZM610.134 40.415C610.134 38.996 610.091 38.953 611.381 38.953H614.434C616.799 38.953 618.433 39.297 619.422 40.028C620.067 40.501 620.368 42.092 620.497 43.167C620.712 43.425 621.443 43.425 621.615 43.081C621.486 41.791 621.787 38.308 622.26 36.545C622.174 36.373 621.701 36.33 621.486 36.416C620.841 37.534 620.454 37.62 618.132 37.62H600.717C598.739 37.62 597.32 37.663 597.062 36.287C596.933 36.158 596.374 36.201 596.245 36.287C595.944 38.007 595.299 40.759 594.611 42.694C594.783 43.038 595.385 43.253 595.729 42.995C596.202 41.92 596.632 40.974 597.664 40.028C598.739 39.039 601.104 38.953 602.953 38.953H605.318C606.608 38.953 606.608 38.996 606.608 40.329V59.55C606.608 64.065 606.393 64.71 603.942 64.925L602.394 65.054C602.05 65.269 602.136 66 602.394 66.129C605.146 66.043 606.651 66 608.371 66C610.091 66 611.553 66.043 614.004 66.129C614.262 66 614.348 65.226 614.09 65.054L612.714 64.925C610.22 64.71 610.134 64.065 610.134 59.55V40.415ZM636.662 66.688C644.961 66.688 651.583 60.367 651.583 51.681C651.583 44.113 646.595 36.932 636.662 36.932C627.804 36.932 621.354 43.511 621.354 52.111C621.354 59.851 627.116 66.688 636.662 66.688ZM637.221 65.355C628.75 65.355 625.654 57.099 625.654 50.735C625.654 41.318 631.459 38.265 635.931 38.265C644.144 38.265 647.283 45.919 647.283 53.014C647.283 61.485 642.381 65.355 637.221 65.355ZM668.908 66.688C677.207 66.688 683.829 60.367 683.829 51.681C683.829 44.113 678.841 36.932 668.908 36.932C660.05 36.932 653.6 43.511 653.6 52.111C653.6 59.851 659.362 66.688 668.908 66.688ZM669.467 65.355C660.996 65.355 657.9 57.099 657.9 50.735C657.9 41.318 663.705 38.265 668.177 38.265C676.39 38.265 679.529 45.919 679.529 53.014C679.529 61.485 674.627 65.355 669.467 65.355ZM689.373 59.55C689.373 64.065 689.287 64.667 686.793 64.925L685.503 65.054C685.245 65.312 685.331 66 685.589 66.129C687.997 66.043 689.373 66 691.179 66H695.135C699.564 66 703.649 66.043 705.842 66.129C706.444 64.968 707.648 60.582 707.648 60.109C707.648 59.808 706.831 59.636 706.573 59.851C705.713 62.044 704.595 63.592 703.735 64.108C703.047 64.495 702.144 64.667 698.489 64.667C695.092 64.667 694.275 64.151 693.802 63.678C693.028 62.861 692.899 61.743 692.899 59.034V44.07C692.899 39.555 692.985 38.867 695.522 38.652L696.554 38.566C696.812 38.394 696.726 37.62 696.468 37.491C694.318 37.577 692.856 37.62 691.179 37.62C689.459 37.62 687.997 37.577 685.589 37.491C685.331 37.62 685.245 38.394 685.503 38.566L686.578 38.652C689.287 38.867 689.373 39.555 689.373 44.07V59.55ZM701.86 38.609C703.666 38.781 704.182 39.942 704.999 41.705C707.794 47.682 710.46 53.659 713.212 59.636C713.771 60.883 715.448 64.753 716.179 66.559C716.394 66.645 716.609 66.688 716.824 66.688C717.039 66.688 717.211 66.645 717.34 66.559C718.587 62.99 721.167 57.486 722.715 54.347C724.048 57.357 726.542 62.732 727.918 66.559C728.09 66.645 728.305 66.688 728.52 66.688C728.735 66.688 728.907 66.645 729.036 66.559C730.799 61.958 732.519 57.744 734.411 53.358L737.55 46.091C740.13 40.114 740.517 38.824 742.667 38.609L743.484 38.523C743.785 38.179 743.742 37.62 743.398 37.491C742.28 37.577 741.033 37.62 739.399 37.62C738.066 37.62 736.905 37.577 735.271 37.491C734.927 37.663 734.884 38.136 735.228 38.523L736.475 38.609C737.378 38.652 737.894 38.996 737.894 39.598C737.894 40.114 737.163 41.963 736.604 43.511C736.303 44.285 734.024 50.004 733.164 52.068C731.917 55.121 730.627 58.131 729.294 61.141C727.875 57.873 726.37 54.648 724.908 51.337C724.693 50.821 724.607 50.477 724.607 50.305C724.607 50.133 724.779 49.703 724.994 49.273C725.639 47.768 727.445 44.027 728.348 42.436C729.294 40.673 730.068 38.738 731.874 38.609L733.121 38.523C733.379 38.179 733.336 37.62 733.035 37.491C732.046 37.577 730.326 37.62 728.907 37.62C727.316 37.62 726.026 37.577 724.865 37.491C724.564 37.62 724.478 38.093 724.779 38.523L726.069 38.609C727.445 38.695 727.66 39.168 726.112 42.823C725.166 45.145 724.392 46.779 723.575 48.456C722.371 45.79 721.167 43.081 720.264 40.974C719.447 39.039 719.49 38.738 721.167 38.609L722.285 38.523C722.543 38.179 722.5 37.62 722.199 37.491C721.21 37.577 719.619 37.62 717.469 37.62C715.749 37.62 714.115 37.577 712.868 37.491C712.524 37.663 712.481 38.179 712.782 38.523L713.814 38.609C715.276 38.738 715.921 39.641 716.566 40.974C718.2 44.414 719.791 47.854 721.296 51.294C721.511 51.81 721.64 52.197 721.64 52.412C721.64 52.627 721.339 53.358 720.952 54.175C719.834 56.583 718.673 58.991 717.641 61.141C715.147 55.852 712.61 50.477 710.202 45.102C708.869 42.049 707.966 39.856 707.966 39.34C707.966 38.953 708.482 38.695 709.385 38.609L710.374 38.523C710.632 38.222 710.675 37.62 710.288 37.491C708.783 37.577 706.59 37.62 705.386 37.62C704.053 37.62 702.118 37.577 700.957 37.491C700.613 37.663 700.57 38.265 700.828 38.523L701.86 38.609ZM756.83 66.688C765.129 66.688 771.751 60.367 771.751 51.681C771.751 44.113 766.763 36.932 756.83 36.932C747.972 36.932 741.522 43.511 741.522 52.111C741.522 59.851 747.284 66.688 756.83 66.688ZM757.389 65.355C748.918 65.355 745.822 57.099 745.822 50.735C745.822 41.318 751.627 38.265 756.099 38.265C764.312 38.265 767.451 45.919 767.451 53.014C767.451 61.485 762.549 65.355 757.389 65.355ZM777.295 59.55C777.295 64.065 777.209 64.624 774.715 64.925L773.64 65.054C773.382 65.355 773.468 66 773.726 66.129C775.747 66.043 777.295 66 779.101 66C780.821 66 782.283 66.043 784.218 66.129C784.476 66 784.562 65.269 784.304 65.054L783.401 64.925C780.907 64.581 780.821 64.065 780.821 59.55V54.132C780.821 53.229 780.907 53.186 782.842 53.186C784.562 53.186 785.25 53.616 785.895 54.562C787.228 56.497 788.991 59.464 790.109 61.055C793.162 65.398 795.355 66.473 799.01 66.473C799.827 66.473 800.515 66.387 800.902 66.258C801.117 66.086 801.074 65.742 800.859 65.656C799.698 65.57 798.623 65.097 797.892 64.452C794.968 62.001 792.689 58.561 789.249 53.014C789.034 52.67 788.819 52.24 789.034 51.982C791.184 51.122 794.409 48.886 794.409 44.801C794.409 41.791 792.904 39.856 790.84 38.781C788.862 37.706 786.325 37.491 783.659 37.491C779.445 37.491 776.478 37.62 774.07 37.835C773.726 38.007 773.726 38.695 774.027 38.91L775.403 39.082C777.166 39.297 777.295 40.028 777.295 44.113V59.55ZM780.821 40.2C780.821 38.996 780.95 38.824 783.616 38.824C788.389 38.824 790.496 42.049 790.496 45.446C790.496 48.37 789.507 49.875 788.346 50.778C787.099 51.724 785.465 51.896 783.917 51.896C781.724 51.896 781.079 51.81 780.95 51.681C780.821 51.509 780.821 51.036 780.821 50.262V40.2ZM803.074 59.55C803.074 64.065 802.988 64.581 800.709 64.925L799.849 65.054C799.591 65.355 799.677 66 799.935 66.129C801.698 66.043 803.16 66 804.923 66C806.6 66 808.062 66.043 810.169 66.129C810.427 66 810.513 65.226 810.255 65.054L809.094 64.925C806.686 64.667 806.6 64.065 806.6 59.55V54.003C806.6 52.498 806.686 51.939 807.331 51.939C808.363 51.939 809.051 52.799 811.502 55.551L814.942 59.421C816.576 61.27 817.694 62.431 818.511 63.463C818.812 63.85 819.113 64.194 819.113 64.452C819.113 64.667 818.683 64.796 818.081 64.882L817.092 65.054C816.834 65.312 816.963 66.043 817.264 66.129C819.242 66.043 820.747 66 822.51 66C824.531 66 826.208 66.043 827.326 66.129C827.627 66 827.713 65.269 827.412 65.054L826.251 64.925C824.789 64.753 823.843 64.194 822.811 63.162C819.457 59.636 816.146 55.766 812.061 51.079C811.502 50.391 811.244 50.047 811.244 49.746C811.244 49.402 811.631 49.015 812.233 48.413L816.103 44.758C818.511 42.479 820.919 40.458 822.123 39.77C823.327 39.082 825.004 38.652 826.122 38.566C826.38 38.308 826.337 37.706 826.036 37.491C824.746 37.577 823.284 37.62 821.779 37.62C820.274 37.62 818.554 37.577 817.049 37.491C816.705 37.706 816.662 38.265 816.963 38.566L818.124 38.824C818.683 38.953 818.855 39.082 818.855 39.254C818.855 39.426 818.769 39.641 818.554 39.942C818.124 40.544 816.017 42.737 815.2 43.511L810.556 48.112C810.083 48.542 808.965 49.66 808.363 50.176C808.062 50.391 807.546 50.649 807.159 50.649C806.686 50.649 806.6 49.832 806.6 49.015V44.07C806.6 39.555 806.686 38.91 809.18 38.652L809.997 38.566C810.255 38.394 810.169 37.62 809.911 37.491C808.062 37.577 806.6 37.62 804.923 37.62C802.988 37.62 801.612 37.577 799.505 37.491C799.247 37.62 799.161 38.394 799.419 38.566L800.494 38.652C802.988 38.867 803.074 39.555 803.074 44.07V59.55ZM843.443 58.733C843.443 54.648 840.777 52.154 838.068 50.477L834.628 48.327C833.037 47.338 830.973 45.532 830.973 43.038C830.973 41.06 831.876 38.265 836.09 38.265C840.218 38.265 841.379 41.06 841.938 43.124C842.153 43.382 842.841 43.253 843.013 42.995C843.013 41.189 842.626 38.781 842.239 37.749C841.895 37.749 841.293 37.663 840.734 37.491C839.616 37.19 838.068 36.932 836.735 36.932C831.145 36.932 827.963 40.243 827.963 44.328C827.963 47.854 830.457 50.305 832.607 51.724L836.692 54.39C839.831 56.411 840.218 58.518 840.218 60.41C840.218 62.99 838.455 65.355 834.843 65.355C829.855 65.355 828.092 61.141 827.447 58.948C827.275 58.69 826.63 58.776 826.415 59.077C826.501 61.098 827.06 64.151 827.576 65.097C828.393 65.57 830.672 66.688 834.284 66.688C839.874 66.688 843.443 63.463 843.443 58.733Z" fill="white"/>
</svg>
